<svg xmlns="http://www.w3.org/2000/svg" viewBox="0 0 172.26 397.72"><defs><style>.cls-1,.cls-2,.cls-3{fill:none;stroke:#00e0f7;stroke-miterlimit:10;}.cls-1{stroke-width:7px;}.cls-2{stroke-width:6px;}.cls-3{stroke-width:5px;}</style></defs><title>fuel</title><g id="Capa_6" data-name="Capa 6"><path class="cls-1" d="M6946.93,6992.47l13.83-18.58c11.3,8.69,97.72,77.64,100.17,197.11,2.26,110.24-68.7,179.65-80.29,190.61l-17.72-20.31c10.33-9.36,76.05-70.93,74.95-170.31C7036.67,7062.27,6956.53,6999.71,6946.93,6992.47Z" transform="translate(-6892.22 -6968.94)"/><path class="cls-2" d="M6895.22,7212.71l62.31-.05c-.08-5.31-5.47-15.95-10.12-15.95-.27-19.15-.21-38.29-.48-57.44-13.41.14-27.59-.13-41,0,0,19,.4,38.34.37,57.31C6901.41,7196.63,6895.22,7207.38,6895.22,7212.71Z" transform="translate(-6892.22 -6968.94)"/><path class="cls-3" d="M6915,7149.28c0,3.83.05,7.65.07,11.48l23.08,0c-.08-3.76,0-7.75-.06-11.52C6930.51,7149.21,6915.05,7149.28,6915,7149.28Z" transform="translate(-6892.22 -6968.94)"/><path class="cls-1" d="M6946.93,7170.34l15.1-4.17q-.12-8.41-.32-16.91c0-1.42-.07-2.83-.11-4.25h1.21q.39,22.74.77,45.49" transform="translate(-6892.22 -6968.94)"/><path class="cls-1" d="M6946.31,7161.33l15.9-13" transform="translate(-6892.22 -6968.94)"/><path class="cls-2" d="M6994.6,7046.68l-15.09,11.86" transform="translate(-6892.22 -6968.94)"/><path class="cls-2" d="M7016.27,7031.26l14.4-11.74" transform="translate(-6892.22 -6968.94)"/><path class="cls-1" d="M7000.77,7256.4" transform="translate(-6892.22 -6968.94)"/><path class="cls-1" d="M7014.55,7272l-20.26-12.21" transform="translate(-6892.22 -6968.94)"/><path class="cls-1" d="M7037.87,7286.65l17.05,11" transform="translate(-6892.22 -6968.94)"/></g></svg>