<svg id="Layer_1" data-name="Layer 1" xmlns="http://www.w3.org/2000/svg" xmlns:xlink="http://www.w3.org/1999/xlink" viewBox="0 0 314.6471 369.2411"><defs><style>.cls-1{fill:#fff;}.cls-2,.cls-3,.cls-4{stroke:#000;stroke-miterlimit:10;}.cls-2{fill:url(#linear-gradient);}.cls-3{fill:url(#linear-gradient-2);}.cls-4{fill:url(#linear-gradient-3);}.cls-5{fill:url(#White_Black);}.cls-6{fill:url(#White_Black-2);}.cls-7{fill:url(#White_Black-3);}.cls-8{fill:url(#White_Black-4);}.cls-9{fill:url(#White_Black-5);}</style><linearGradient id="linear-gradient" x1="824.3376" y1="402.3115" x2="792.2831" y2="420.8182" gradientUnits="userSpaceOnUse"><stop offset="0" stop-color="#1a1a1a"/><stop offset="1" stop-color="gray" stop-opacity="0.01"/></linearGradient><linearGradient id="linear-gradient-2" x1="754.0919" y1="406.4286" x2="719.9771" y2="426.1248" xlink:href="#linear-gradient"/><linearGradient id="linear-gradient-3" x1="890.2954" y1="409.5708" x2="868.337" y2="422.2484" xlink:href="#linear-gradient"/><linearGradient id="White_Black" x1="663.6915" y1="423.3692" x2="954.0738" y2="423.3692" gradientUnits="userSpaceOnUse"><stop offset="0" stop-color="#fff"/><stop offset="1"/></linearGradient><linearGradient id="White_Black-2" x1="780.7158" y1="493.3621" x2="780.8417" y2="493.3621" xlink:href="#White_Black"/><linearGradient id="White_Black-3" x1="774.0247" y1="517.0473" x2="777.7314" y2="517.0473" xlink:href="#White_Black"/><linearGradient id="White_Black-4" x1="827.7439" y1="515.5846" x2="832.5785" y2="515.5846" xlink:href="#White_Black"/><linearGradient id="White_Black-5" x1="755.1519" y1="330.6891" x2="755.1519" y2="330.6891" xlink:href="#White_Black"/></defs><title>KinderShip</title><path d="M966.0054,575.6618c-.3015-1.9075-.8369-3.79-.9956-5.7058-.3769-4.5488-.7652-9.1081-.837-13.6681-.1463-9.2858-1.22-18.5143-1.2253-27.826-.0054-8.6794-1.152-17.3615-1.8736-26.0359-.4937-5.9337-.9436-11.88-1.7472-17.7758a64.2708,64.2708,0,0,0-6.9395-22.6342c-.7533-1.6356-1.97-3.0574-2.73-4.6907-.5417-1.1638-.489-2.6009-1.0148-3.7759-4.6764-10.4513-9.2588-20.9495-14.1916-31.28-5.6042-11.7366-11.53-23.32-17.3385-34.9586-1.563-3.1317-3.2318-6.2106-4.8121-9.3339-1.9627-3.8789-3.7776-7.836-5.8426-11.6589Q896.6524,348.1647,886.7,330.09c-3.1673-5.7779-6.2231-11.6284-9.6561-17.2463-3.9209-6.4162-7.9155-12.8059-13.0844-18.3654-2.4961-2.6847-4.6-5.7345-7.1008-8.4143a107.479,107.479,0,0,0-7.911-7.5534c-1.7743-1.55-3.8169-2.7921-5.7182-4.1572-.2232-.35-.3932-.937-.7779-1.1707-3.7408-2.273-7.3972-4.7318-11.3139-6.6566a47.6592,47.6592,0,0,0-16.1908-5.0852c-1.5862-.1607-3.1581-.4632-4.7365-.7006h-5.85c-1.3341.24-2.6591.5672-4.0036.7028a44.3284,44.3284,0,0,0-14.5564,4.3073,76.2116,76.2116,0,0,0-9.9,5.1692c-4.1948,2.8075-8.559,5.4553-12.0567,9.2093-2.7465,2.9478-5.6176,5.784-8.2715,8.8117-1.0331,1.1787-1.5609,2.7865-2.4338,4.1238a35.0728,35.0728,0,0,1-2.3617,3.0158c-1.2508,1.5219-2.5318,3.0189-3.7818,4.5413-.2275.2771-.3038.6951-.5585.9306-5.0434,4.6635-7.9211,10.8258-11.1167,16.6726q-14.7652,27.0154-28.9847,54.3279c-5.9614,11.4525-11.5412,23.1066-17.1457,34.741q-7.8945,16.3881-15.4525,32.9375c-3.3771,7.4354-6.48,14.9985-9.5729,22.559-2.4575,6.0081-4.7173,12.0972-7.0506,18.1558a5.3007,5.3007,0,0,0-.403,1.5819q-1.1847,22.689-2.325,45.38c-.5458,11.07-.9966,22.1454-1.5594,33.2149-.2,3.934-.5971,7.8583-.93,11.7849a5.5988,5.5988,0,0,1-.3737,1.1882v1.0969a2.1573,2.1573,0,0,1,.2671.6639c.1915,5.3367,2.612,9.7439,5.5056,14.0632a12.3422,12.3422,0,0,0,7.4583,5.1016q11.532,3.1688,23.07,6.3153a4.5667,4.5667,0,0,1,2.225.3414c.6477.2615,1.2917.5323,1.9353.804a53.0523,53.0523,0,0,1,13.0992,4.3381c.0022-.0354.0039-.0705.0062-.1059,1.94.4273,3.87.91,5.8224,1.2724,7.6385,1.4169,15.0426,3.8266,22.8385,4.67,12.9076,1.3964,25.7529,3.364,38.6346,5.0114a1.5915,1.5915,0,0,1,1.0116.3934c.7926.0953,1.5805.2228,2.3669.36.7512.0892,1.5038.1753,2.2543.2637.8077.0344,1.6156.0667,2.4226.1088,1.6614-.0037,3.2725-.0051,4.8761.01,9.9883.0965,19.9771.3321,29.9644.2749,5.3274-.0306,10.6534-.29,15.98-.5041,3.1953-.3619,6.3931-.6891,9.5866-.9454,3.6088-.29,7.5442-1.1572,11.2893-1.0306,3.035-.3364,6.0744-.6417,9.1006-1.0456,6.1975-.8273,12.3832-1.751,18.56-2.7194,4.7932-.7513,9.5851-1.5369,14.3423-2.4847,5.1153-1.019,10.2016-2.1835,15.2944-3.315q14.2268-4.3673,28.4556-8.7313c.0127-.0039.0246-.0057.0372-.0094,6.4832-2.3217,12.9805-4.6059,19.4015-7.088C963.3367,588.8837,967.0055,581.99,966.0054,575.6618Zm-164.3647,13.76c2.8553-1.5732,11.4354-1.1986,13.1689.6954C811.9759,591.1338,802.9191,590.6127,801.6407,589.4219ZM953.5344,468.92c-.5467-.2891-1.1017-.5635-1.6385-.87a12.4376,12.4376,0,0,0-7.7579-1.5129,5.0465,5.0465,0,0,0-4.2967,3.7874,73.1012,73.1012,0,0,0-2.4458,10.7981c-3.0834,22.9942-6.02,46.008-9.0435,69.01-.5791,4.4051-1.2444,8.803-2.03,13.1754a16.5582,16.5582,0,0,1-5.1421,9.4576,7.7639,7.7639,0,0,1-5.38,1.9c-14.002.2968-28.003.6582-42.0061.8842-10.23.1651-20.4626.1388-30.6937.2273-14.37.1244-28.7406.38-43.111.3891-16.8034.0111-33.6073-.1493-50.4105-.2962q-22.2811-.1947-44.561-.5291c-8.17-.1152-12.6017-3.8755-13.9216-12.126-2.2892-14.3087-4.5187-28.6292-6.544-42.9771-1.9914-14.1065-3.65-28.26-5.577-42.3759a28.7477,28.7477,0,0,0-1.9669-6.8077,5.676,5.676,0,0,0-6.43-3.7366,69.1892,69.1892,0,0,0-7.0741,1.7556c.38-1.4309.7085-2.9462,1.1894-4.4115.6951-2.1183,1.4055-4.2408,2.2771-6.29,2.5326-5.9559,5.4435-11.7707,7.6215-17.85,1.3049-3.6422,4.0882-5.1422,6.996-6.6468,2.5817-1.3358,5.406-2.1988,8.1038-3.3173a4.6245,4.6245,0,0,0,1.6335-1.2332c-3.5608.1395-9.8087,2.95-14.4523,5.9836a12.91,12.91,0,0,1,1.2887-1.4012c3.7934-3.0942,8.2268-4.925,12.8086-6.4736a8.6347,8.6347,0,0,0,1.6939-1.0491l-.4617-.8725-13.302,6.0195a6.683,6.683,0,0,1,.9171-1.0009c3.6613-2.9476,7.919-4.7334,12.2952-6.2983a11.6062,11.6062,0,0,0,1.89-1.1016l-.4651-.86-13.1952,6.0767a13.0355,13.0355,0,0,1,1.2818-1.28,39.7649,39.7649,0,0,1,11.825-6.0337,13.2572,13.2572,0,0,0,1.8829-1q-.1761-.3859-.3524-.7717l-10.3908,4.2407-.2381-.2047a8.7817,8.7817,0,0,1,1.7585-1.5021c2.9088-1.3821,5.874-2.6452,8.8009-3.99a14.2108,14.2108,0,0,0,1.7118-1.0941q-.199-.3413-.3982-.6825l-10.1361,4.3046-.2571-.1607a6.9072,6.9072,0,0,1,1.4975-1.4028c2.8987-1.4025,5.8514-2.6929,8.7653-4.0647a17.0277,17.0277,0,0,0,1.8869-1.2l-.3922-.6943-10.24,4.5058-.2585-.1663a8.157,8.157,0,0,1,1.6712-1.5205c2.8872-1.4285,5.8315-2.7411,8.741-4.1254a21.5364,21.5364,0,0,0,1.8483-1.1073l-.3334-.6918c-2.19.9159-4.436,1.7185-6.5529,2.7793-2.1675,1.0861-4.2082,2.425-6.6279,3.8428,1.3442-2.662,2.6-5.0457,3.7576-7.4763.83-1.7425,1.5277-3.5479,2.2847-5.3252.1427-.3349.2693-.678.4324-1.0028,6.9039-13.7521,13.6695-27.5761,20.7576-41.2326,7.1343-13.7453,14.5085-27.3683,21.9456-40.9529,2.8483-5.2027,6.1423-10.163,9.2911-15.1975.3379-.54,1.13-.774,1.5961-1.2608.89-.9307,2.0917-1.8154,2.4523-2.9462a7.8841,7.8841,0,0,1,3.4853-4.5944,7.5594,7.5594,0,0,0,1.8678-2.3046c1.0735-1.5975,1.7795-3.5919,3.1781-4.7917a114.2311,114.2311,0,0,1,11.11-8.4729,88.2824,88.2824,0,0,1,11.3474-6.4111,30.8883,30.8883,0,0,1,13.3058-3.0692c4.6775.0187,9.3557-.1695,14.0334-.1555a37.0175,37.0175,0,0,1,3.718.63c5.0581.5478,10.128.992,15.18,1.5882,1.705.2011,3.3663.7576,5.0549,1.1176,1.4577.3107,2.939.5177,4.3863.8682,3.0789.7456,6.1745,1.4481,9.2058,2.36,6.452,1.94,10.3436,7.21,14.5152,11.8817a188.1569,188.1569,0,0,1,12.9909,16.539c3.3183,4.6789,6.0638,9.7643,9.0576,14.6729.1239.2033.326.5823.2632.6429-1.3469,1.3011.1888,1.7613.7048,2.522,1.2746,1.879,2.6753,3.6891,3.7786,5.6648q7.1838,12.8655,14.2063,25.8208c3.25,6.02,6.3644,12.1148,9.4976,18.1976,2.09,4.0569,4.1217,8.144,6.1354,12.2393a6.6066,6.6066,0,0,1,.3309,1.7272l.3509-.0282c.6571,1.1756,1.355,2.33,1.9647,3.53,3.5909,7.0666,7.2391,14.1057,10.7153,21.2286,3.0335,6.2159,5.8861,12.5206,8.78,18.8036,2.7641,6,5.5491,11.9933,8.1758,18.0542.8719,2.0116,1.1283,4.2854,1.9511,6.3244.6374,1.58,1.849,2.9194,2.5738,4.4737,1.3135,2.8165,2.4544,5.7135,3.6674,8.5769Z" transform="translate(-651.5219 -260.7406)"/><path class="cls-1" d="M814.81,590.1173c-2.8337,1.0165-11.8905.4955-13.1689-.6953C804.496,587.8487,813.0761,588.2234,814.81,590.1173Z" transform="translate(-651.5219 -260.7406)"/><path class="cls-1" d="M920.1232,621.5109c1.8436,2.3445,1.0271,4.5865.0848,7.1136-2.0689-1.44-1.6021-3.5964-1.9177-5.3871C918.0939,622.1233,918.8658,621.4561,920.1232,621.5109Z" transform="translate(-651.5219 -260.7406)"/><path class="cls-1" d="M697.2837,629.9817c-1.2367-2.6431-.7777-5.0783.2-7.4481a1.8248,1.8248,0,0,1,1.6153-.035C699.748,623.2119,698.3125,629.13,697.2837,629.9817Z" transform="translate(-651.5219 -260.7406)"/><path class="cls-2" d="M824.7683,411.9974c-.2182,6.9708-1.8725,13.7237-7.1046,19.1319-5.5169,5.7025-13.3606,5.6514-18.7449-.15-6.1269-6.6011-7.6442-14.6274-6.7959-23.266a27.2137,27.2137,0,0,1,5.0839-13.7222c6.037-8.194,15.8512-8.2555,22.02-.1374C823.2258,399.1168,824.598,405.23,824.7683,411.9974Z" transform="translate(-651.5219 -260.7406)"/><path class="cls-3" d="M723.4725,424.4141c.5556-8.8805,3.3085-18.04,9.7379-25.7541a19.2712,19.2712,0,0,1,6.28-4.8082c3.8661-1.8692,7.3075-.3659,9.3127,3.4336a20.9,20.9,0,0,1,2.02,11.1842c-.5955,10.5015-3.9666,19.91-11.7641,27.2828a17.915,17.915,0,0,1-5.8817,3.4818c-2.8619,1.0883-5.23.0753-6.9849-2.4384C723.8036,433.3735,723.5085,429.44,723.4725,424.4141Z" transform="translate(-651.5219 -260.7406)"/><path class="cls-4" d="M893.0522,426.4635a57.8125,57.8125,0,0,1-1.3042,6.8424c-1.6453,5.4872-5.9158,7.3405-10.7656,4.3425a26.49,26.49,0,0,1-7.3075-6.71c-6.0957-8.3369-9.009-17.7378-7.88-28.1486a18.984,18.984,0,0,1,1.4814-5.4247c2.1148-4.8677,6.6544-6.2481,11.1042-3.29A22.2161,22.2161,0,0,1,883.62,398.81C889.7046,406.6638,892.5427,415.7124,893.0522,426.4635Z" transform="translate(-651.5219 -260.7406)"/><path d="M793.4174,498.3587c-.4476-.4185-1.2545-.8193-1.2762-1.2589-.0676-1.37-.9716-1.6149-1.9623-2.0075-3.0176-1.1958-6.0372-2.2662-9.3619-1.4987-.2162.05-.4336.0942-.165.036,3.1659.7519,6.7088,1.5933,10.2026,2.4229-.2149,2.7194.22,3.447,2.727,3.8436,2.0821.3293,4.2333.2016,6.3324.4547a5.346,5.346,0,0,1,2.2067,1.0857c1.3061.9142,2.5425,1.928,3.8077,2.9006l-.0605-.0575a41.6079,41.6079,0,0,1-5.5581,1.142c-1.6748.1262-3.3889-.3843-5.0834-.3687a26.04,26.04,0,0,0-4.0221.6626c-1.974-2.6621-3.5745-3.0674-6.9289-1.4011a35.7181,35.7181,0,0,1-4.3884,2.1037c.9443-1.3561,1.9293-2.6865,2.8119-4.0816a8.0869,8.0869,0,0,0,.6212-1.797,5.1118,5.1118,0,0,0-1.8279-.5559c-5.3557.5707-10.29,2.3118-13.9124,6.4319-1.3818,1.5716-1.9423,3.8654-2.7443,5.5509-1.7093-3.5049-.8748-8.9436,2.4892-12.3739,4.3964-4.4831,9.8247-7.1272,16.12-7.0181,2.7965.0484,5.5839,1.3989,8.3375,2.2774.39.1243.6071.9078.8261,1.42.2968.6935.5182,1.4193.7719,2.1312Z" transform="translate(-651.5219 -260.7406)"/><path d="M832.45,505.8566c-3.5044-2.1426-3.93-2.14-7.1683-.1306l-5.7365-4.6555a63.5533,63.5533,0,0,0,6.0818-2.3534,4.8123,4.8123,0,0,0,3.0419-4.0466c.0193-.3117.4193-.6736.7305-.882,3.0472-2.0413,6.1871-2.3757,9.43-.4415a2.9943,2.9943,0,0,0,.6759.2443c.0365.0111.0985-.0625.3271-.2193l-2.8307-1.5442.0263-.2353a11.9824,11.9824,0,0,1,1.3722.1861c6.4555,1.6218,11.85,4.7894,15.13,10.8045,1.7593,3.2257,1.7513,6.6208.1907,10.5222-.1151-.8453-.1991-1.2-.2066-1.5563-.1707-8.0963-5.7124-11.9306-13.291-11.6224-1.6258.0661-2.3133,1.0142-1.8185,2.6224a36.2559,36.2559,0,0,0,1.8953,4.1931c-1.1421-.7431-2.11-1.402-3.1074-2.011a6.9821,6.9821,0,0,0-1.9436-.9828,3.8347,3.8347,0,0,0-2.405.0074C832.4591,503.9586,832.5686,505.1024,832.45,505.8566Z" transform="translate(-651.5219 -260.7406)"/><path d="M822.8917,539.07c4.6473-.4983,9.7243-.7084,14.6537-1.6728,4.2432-.83,6.0413-4.1138,5.3792-8.2108-.4156-2.5716-1.7784-4.2157-4.3422-4.4709a22.1043,22.1043,0,0,0-6.3266.2837c-5.9146,1.1506-11.2888,3.7944-16.631,6.4712-6.3363,3.1748-12.92,5.0311-20.0975,3.9314-6.3391-.9711-11.3372-4.4212-16.35-8.693,2.1574-.301,3.9837-.5967,5.8214-.7795a1.64,1.64,0,0,1,1.2219.5289c5.1959,6.32,12.1068,7.146,19.5782,6.1373,4.6668-.63,8.7764-2.8266,12.9981-4.7166,5.2392-2.3455,10.5624-4.4455,16.3928-4.7859,4.8345-.2822,8.0711,1.8252,8.8816,5.7856.7038,3.4394-1.3571,7.6881-4.6625,9.6115C835.1012,540.9969,826.9905,541.1692,822.8917,539.07Z" transform="translate(-651.5219 -260.7406)"/><path d="M805.9284,504.3371c-.6994-.57-1.4291-1.1079-2.093-1.717-3.043-2.7918-3.3229-6.2419-.5984-9.355a46.7166,46.7166,0,0,1,4.0981-3.74c-5.146.9994-5.146.9994-6.58.5152l8.3586-2.6473-6.9094-3.0374.0919-.3219c1.0134.1642,2.0218.3874,3.0418.4741a8.7044,8.7044,0,0,0,2.5407-.06c3.7224-.8064,3.716-.8359,6.6871,1.3537l-.7459-3.36c2.2607,1.5842,3.0436,3.9373,3.7391,6.3951.5253,1.8561,1.3007,3.64,1.8883,5.4807a5.4769,5.4769,0,0,1,.3041,2.2653c-.0378.3019-.9263.8135-1.2664.7083a27.7943,27.7943,0,0,1-5.2508-1.9966,17.9206,17.9206,0,0,1-3.1364-2.8468l-.9817.8264.0606.0572-.406-1.48c-4.345,2.7489-3.5975,9.42,1.2524,13.2027q-2.08-.3886-4.1575-.7759Z" transform="translate(-651.5219 -260.7406)"/><path d="M703.6472,503.4089c-.5112,3.341-.9328,6.4583-2.8108,9.182-1.85,2.6826-4.0345,2.5944-5.6774-.198-2.4731-4.2036-1.9472-13.1,1.0031-16.9707,1.68-2.2044,4.0562-2.1537,5.1821.4019A61.898,61.898,0,0,1,703.6472,503.4089Z" transform="translate(-651.5219 -260.7406)"/><path d="M913.38,502.4348a54.7709,54.7709,0,0,1,1.9082-6.9488c1.1437-2.766,3.4938-2.9133,5.3544-.5873,2.9932,3.7421,3.7431,12.3482,1.4422,16.5521-1.605,2.9325-4.0306,3.0833-5.9062.2816C914.325,508.9642,913.78,505.8059,913.38,502.4348Z" transform="translate(-651.5219 -260.7406)"/><path d="M713.6891,518.746a21.4428,21.4428,0,0,1,1.2748-2.9454,27.5824,27.5824,0,0,1,9.47-9.69c1.4261-.8752,3.2007-2.0221,4.6871-.6016,1.5149,1.4478.3312,3.25-.4619,4.6991a26.87,26.87,0,0,1-9.99,10.4,9.7727,9.7727,0,0,1-2.336,1.0092C714.4892,522.13,713.5376,521.2929,713.6891,518.746Z" transform="translate(-651.5219 -260.7406)"/><path d="M903.6571,518.8c-.0584,1.4424-.8024,1.9963-2.0549,1.8639a6.8282,6.8282,0,0,1-2.2763-.609,25.5234,25.5234,0,0,1-11.0381-10.5877c-.7883-1.3942-1.8041-3.1664-.3728-4.554,1.4211-1.3777,3.1367-.33,4.543.4843a26.75,26.75,0,0,1,10.06,10.3563A20.9692,20.9692,0,0,1,903.6571,518.8Z" transform="translate(-651.5219 -260.7406)"/><path d="M705.616,532.7477a49.718,49.718,0,0,1,1.408-6.1456c1.0127-2.7351,3.14-2.9845,4.6238-.473a21.5072,21.5072,0,0,1,2.2134,5.9072,16.74,16.74,0,0,1-.2849,9.7108c-.4093,1.1264-1.363,2.5567-2.3619,2.8509-1.5433.4545-2.5337-1.1384-2.9554-2.4269C707.2108,538.9677,706.4211,535.68,705.616,532.7477Z" transform="translate(-651.5219 -260.7406)"/><path d="M910.8327,534.6388l-2.7545-2.66a9.193,9.193,0,0,0-.4141,2.031c.0239,1.535.1858,3.0683.3089,4.601a5.9313,5.9313,0,0,0,.29,2.3043c.8512,1.515-.2378,2.1264-1.1322,2.7361-1.0508.7164-1.845.0727-2.4-.8431a6.23,6.23,0,0,1-.7441-1.6552,20.9321,20.9321,0,0,1,1.44-15.0721,4.0529,4.0529,0,0,1,2.8038-2.0715c.7426-.0134,1.7983,1.4518,2.2163,2.465C911.4629,528.9353,911.4231,531.5494,910.8327,534.6388Z" transform="translate(-651.5219 -260.7406)"/><path d="M809.6335,442.9884l10.357,2.0479c-.0025.0133.0574-.2974.1173-.6081l.4383-.3928a6.9816,6.9816,0,0,1,1.04,1.6709,1.9234,1.9234,0,0,1-.2036,1.6326,7.3407,7.3407,0,0,1-2.913,1.7412c-6.5482,1.3593-13.1353,1.8085-19.7252.208a3.22,3.22,0,0,1-1.3375-.56c-.7849-.6826-1.9566-1.4095-2.066-2.2379-.1027-.7781.9571-1.71,1.5053-2.5737l.4912.28-.61,1.1965c3.4216-1.5758,6.8345-2.6261,10.6292-1.8-2.7861,1.2365-6.1818.177-8.8244,1.9946l7.8833.3941.0093.9754-6.137.4132-.0138.3c2.0622,0,4.1317-.1082,6.1845.031,1.99.1349,3.9637.524,5.9446.8015l.1355-.5246-1.273-.7392h6.401l.0027-.4538-9.4986-.43-.0033-.1384,10.934-.5757c-3.3809-1.4069-6.844-.1553-9.6474-1.7786Zm4.9078,6.1135-.0188-.206h-9.1067l.0231.6142Z" transform="translate(-651.5219 -260.7406)"/><path d="M873.1351,553.786c.5856,1.0057,1.1619,1.9306,1.6742,2.89.8855,1.6574-1.2236,1.3009-1.5448,2.1521,2.6406,2.0188,2.7925,3.44.3655,4.8331.4442.29.9827.4487,1.1443.787a6.218,6.218,0,0,1,.788,2.5729c-.003.3487-1.28,1.1107-1.6024.9469a3.5607,3.5607,0,0,1-1.8038-1.872,42.4849,42.4849,0,0,1-.9666-5.9166c-.322-2.7735-.5267-5.56-.8164-8.3378-.1382-1.3255-.2753-2.7449,1.3337-3.1559,1.6829-.43,2.09.9474,2.518,2.2089C874.7074,552.316,875.15,553.6413,873.1351,553.786Z" transform="translate(-651.5219 -260.7406)"/><path d="M871.8269,530.2434c2.0867,3.2621,2.1371,3.59.0527,4.6636a8.0141,8.0141,0,0,1,1.2038,1.913,2.1782,2.1782,0,0,1-.2374,1.8635,1.9825,1.9825,0,0,1-1.9162.1608,4.4677,4.4677,0,0,1-1.5178-2.4912c-.3065-2.9383-.3474-5.9051-.4654-8.862-.0459-1.15.0914-2.3246,1.5291-2.4677a2.0619,2.0619,0,0,1,2.4837,2C873.1865,528.36,873.8936,529.6423,871.8269,530.2434Z" transform="translate(-651.5219 -260.7406)"/><path d="M766.42,431.19c-.2143,2.6489-.6092,5.2986-.5967,7.9464a51.1936,51.1936,0,0,0,.6563,9.608c1.2119,6.15,6.0352,9.62,13.45,9.7121,7.485.0925,14.9741-.22,22.4617-.24,11.0848-.03,22.17.0356,33.2549.0718,6.3782.0209,7.9886-.5575,12.7068-4.6451-1.3019,2.6939-5.1651,4.8519-9.2823,4.88-8.7043.06-17.41-.07-26.1141-.02q-16.4442.0949-32.8872.362c-8.64.1344-14.0625-4.6273-14.8129-13.232a32.6651,32.6651,0,0,1-.0035-5.11c.22-3.1244.5689-6.24.8641-9.359Z" transform="translate(-651.5219 -260.7406)"/><path d="M808.3466,498.0433a19.4,19.4,0,0,0,3.3247,2.0359c2.272.8423,4.68,1.3165,6.9539,2.1553a11.512,11.512,0,0,1,3.561,2.1036c2.0613,1.8174,1.6366,3.8563-.8895,4.9537-.4771.2073-.9948.3211-1.6124.5154,1.4783-2.8042,1.2273-3.7878-1.5865-5.2356-2.0991-1.08-4.3715-1.8229-6.4733-2.8985a14.2076,14.2076,0,0,1-2.972-2.3309c-.2486-.229-.17-.8135-.241-1.2348Z" transform="translate(-651.5219 -260.7406)"/><path d="M771.7657,494.149c-4.7738,2.8045-9.2394,5.89-10.3885,11.8614-1.1165,5.8013,2.23,10.3551,4.33,15.2644-3.8409-4.2489-6.7827-8.9079-5.595-14.9468C761.3828,499.8658,766.2888,496.684,771.7657,494.149Z" transform="translate(-651.5219 -260.7406)"/><path d="M878.8012,533.0477c-1.4407-1.07-3.0944-1.9343-2.8815-4.21.1241-1.3271.4311-2.418,1.8144-2.8055a3.0047,3.0047,0,0,1,3.4431,1.4391c1.3092,1.9578-.0625,4.98-2.424,5.5487Z" transform="translate(-651.5219 -260.7406)"/><path d="M834.1288,411.8346l-.2634-.5905c-.092.0995-.239.2048-.2225.2488a18.4512,18.4512,0,0,0,1.7382,4.2771,3.4946,3.4946,0,0,0,2.8757,1.363,3.928,3.928,0,0,0,2.5211-2.4636,35.63,35.63,0,0,0-.1557-6.6,7.022,7.022,0,0,0-.1888-.6911c-.0156-.1.0819-.2173.13-.3258,2.3612,2.3294,1.8384,8.6773-.8571,10.4338a3.9583,3.9583,0,0,1-5.0868-1.0274,10.4071,10.4071,0,0,1-1.941-8.2064l2.1647,1.578.7662-1.33,1.1917,1.7256,1.5865-1.0316.3412.4158a11.5713,11.5713,0,0,1-1.9673,1.5565A13.1079,13.1079,0,0,1,834.1288,411.8346Z" transform="translate(-651.5219 -260.7406)"/><path d="M852.9306,520.0881c.4593-1.0307.9111-2.0648,1.38-3.0912.68-1.49,1.4913-2.9321,2.0388-4.4686,2.1287-5.9747.7023-11.2889-4.0692-15.4843-.6621-.5822-1.3605-1.1233-2.362-1.9462C860.2858,500.3612,861.2209,511.5407,852.9306,520.0881Z" transform="translate(-651.5219 -260.7406)"/><path d="M878.7532,533.02c.6018.5024,1.2441.9649,1.7922,1.52a4.8565,4.8565,0,0,1,1.033,1.4491c.68,1.6032.1763,3.4023-1.0369,4.0011-1.1674.5762-2.8644-.2389-3.72-1.787-1.1624-2.1026-.6066-3.54,1.9853-5.1516C878.8012,533.0477,878.7532,533.02,878.7532,533.02Z" transform="translate(-651.5219 -260.7406)"/><path d="M884.2046,564.1225c-.8407.9024-1.39,1.9906-2.1648,2.1863a3.8414,3.8414,0,0,1-2.7152-.7987c-.5249-.37-1.6778-1.0644-.6057-2.1255a.6748.6748,0,0,0,.1274-.4393c-1.8294-.9922-.4025-1.8906.2187-2.5111a1.9043,1.9043,0,0,1,3.0251.2753A32.71,32.71,0,0,1,884.2046,564.1225Z" transform="translate(-651.5219 -260.7406)"/><path d="M882.6361,553.9128c.0238,1.6754-.8187,2.7222-2.2089,2.7444-1.7741.0283-3.374-1.8848-3.37-4.0293a2.484,2.484,0,0,1,2.4728-2.5787C881.0364,550.04,882.6089,551.996,882.6361,553.9128Z" transform="translate(-651.5219 -260.7406)"/><path d="M842.8616,519.1256c-1.4476.4164-1.9478-.0625-1.9089-1.2694.0234-.7266-.0269-1.4555-.0382-2.1834-.0379-2.4447.1176-2.6051,2.5212-2.5117a15.0969,15.0969,0,0,1,1.6262.1624c1.6893.2511,2.82.944,2.5612,2.9538a25.1366,25.1366,0,0,0-.0226,3.1371c-1.2329.45-1.8136.1071-1.7538-1.2461.0294-.6643-.0459-1.333-.0708-2-.0864-2.3172-.248-2.4532-2.9143-2.3067Z" transform="translate(-651.5219 -260.7406)"/><path d="M806.9145,518.3143c-1.39.4221-1.8937.07-1.8172-1.1237a15.5292,15.5292,0,0,0-.0206-2.9068c-.0623-.4971-.4041-1.254-.7674-1.3534a2.4953,2.4953,0,0,0-2.0335.19c-.953.9561-.367,1.5648.4063,1.6362-.3862,1.1572-.7784,2.3322-1.2421,3.7214-.8144.2691-1.4805.1042-1.3936-1.2466.0389-.6043.0248-1.2131.0114-1.8194-.0271-1.2305-.1294-2.3875,1.51-2.8474a5.3445,5.3445,0,0,1,4.9962.6145c.3432.2628.3117,1.0991.3359,1.6764C806.9483,515.9945,806.9145,517.1375,806.9145,518.3143Z" transform="translate(-651.5219 -260.7406)"/><path d="M818.1574,517.98c-.2188-1.189.9719-2.8041-1.3016-3.0689h2.9176a8.6279,8.6279,0,0,1,.195,1.1044c.1043,2.4413.09,2.45-2.3163,2.4556-4.3.01-4.2242.0072-4.3852-4.2049-.0654-1.7118.3511-2.4877,2.1814-2.2772,1.1379.1308,2.3057-.0191,3.4547.0482a1.7913,1.7913,0,0,1,.9669.5656c.0635.06-.176.66-.33.6851a2.2017,2.2017,0,0,1-1.202-.1289c-.4941-.2226-.8834-.7655-1.382-.8734-1.3033-.282-2.1338.1223-1.9044,1.6959a12.718,12.718,0,0,1,.0185,1.8188C815.0707,518.4158,815.1624,518.4874,818.1574,517.98Z" transform="translate(-651.5219 -260.7406)"/><path d="M772.5263,520.7124v-6.913a34.8244,34.8244,0,0,1,4.332.0406,2.8768,2.8768,0,0,1,.8753,5.5706A43.4208,43.4208,0,0,1,772.5263,520.7124Zm1.525-.7938a10.3936,10.3936,0,0,0,2.0218-.3437c1.5745-.6433,1.8037-2.0074,1.5909-3.4711a2.03,2.03,0,0,0-2.4019-1.908,1.6528,1.6528,0,0,0-1.1555,1.0724C773.9637,516.6934,774.0513,518.1417,774.0513,519.9186Z" transform="translate(-651.5219 -260.7406)"/><path d="M829.9467,512.2775c2.4606.005,4.3945,1.4961,4.4361,3.42.0391,1.8045-1.634,3.1623-3.93,3.1892-2.5375.03-4.5746-1.5565-4.5246-3.5232C825.9748,513.5372,827.6209,512.2728,829.9467,512.2775Zm2.6314,3.4927c.0224-1.7905-.9178-2.9737-2.413-3.0368-1.4575-.0615-2.3723.9012-2.4193,2.546-.0521,1.82.9981,3.1333,2.525,3.1587C831.6779,518.4615,832.5572,517.4448,832.5781,515.77Z" transform="translate(-651.5219 -260.7406)"/><path d="M890.2179,568.2039c-.6052-.0419-1.359.1248-1.78-.1754a3.0679,3.0679,0,0,1-1.3331-1.8394c-.0383-.4524.8524-1.2715,1.4553-1.4246a5.5916,5.5916,0,0,1,3.0555-.0086c.7255.2531,1.2034,1.2161,1.7913,1.8638a16.9345,16.9345,0,0,1-1.9274,1.4814c-.3187.1846-.833.0314-1.2585.0314Z" transform="translate(-651.5219 -260.7406)"/><path d="M886.8053,530.23c-.324.3792-.6992,1.2111-1.179,1.2765a2.0287,2.0287,0,0,1-1.7332-.8612,20.337,20.337,0,0,1-1.1071-4.5528c-.0581-.4445.77-1.4574.9992-1.4028.7205.1713,1.6919.58,1.9433,1.1645A26.655,26.655,0,0,1,886.8053,530.23Z" transform="translate(-651.5219 -260.7406)"/><path d="M869.4061,542.8074c.1774-1.2633-.6173-2.91,1.2048-3.1117,1.9295-.2136,1.8808,1.484,2.0211,2.7921a8.7268,8.7268,0,0,1,.0486,2.5338c-.113.5855-.7087,1.5632-.9968,1.5313a2.544,2.544,0,0,1-1.825-1.0656A8.9274,8.9274,0,0,1,869.4061,542.8074Z" transform="translate(-651.5219 -260.7406)"/><path d="M884.086,552.3117c-.0288-1.1957.4175-2.0113,1.7334-2.0779,1.1944-.06,2.5086,1.3825,2.5386,2.8362a2.0236,2.0236,0,0,1-1.9276,2.2414C885.3074,555.4528,884.1208,553.8684,884.086,552.3117Z" transform="translate(-651.5219 -260.7406)"/><path d="M889.8338,561.8151a6.6187,6.6187,0,0,1-2.08,1.4588c-1.0182.2778-2.3376-1.7476-2.2716-3.2459a1.6778,1.6778,0,0,1,1.88-1.7578C888.55,558.267,889.8384,559.815,889.8338,561.8151Z" transform="translate(-651.5219 -260.7406)"/><path d="M788.8234,513.2022c1.1623-.1029,2.3242-.2554,3.4871-.2638.2142-.0015.6257.5913.61.8917a11.1728,11.1728,0,0,1-.4568,2.0029l.7568,3.1386c-1.4817.344-1.9556-.013-1.9806-1.2544a5.9946,5.9946,0,0,0-.7219-1.896l1.0626-2.4564-2.7926-.1937Z" transform="translate(-651.5219 -260.7406)"/><path d="M737.6335,319.6148a51.4175,51.4175,0,0,1,3.9144-4.734c.6916-.6687,1.9132-.8048,2.9188-1.1012a2.4436,2.4436,0,0,1,.49.9011c-2.1764,1.7853-4.39,3.5257-6.6148,5.2508C738.2789,319.98,738.04,319.802,737.6335,319.6148Z" transform="translate(-651.5219 -260.7406)"/><path d="M831.5185,492.3147c-2.51.5172-3.73,2.2161-5.124,4.1587-2.3673,3.2995-6.1708,3.6327-10.0284,2.7351,1.57-.1376,3.1521-.1942,4.7069-.4308a6.4,6.4,0,0,0,5.63-4.5061,2.9358,2.9358,0,0,1,1.5189-1.3958,23.1933,23.1933,0,0,1,3.0278-.9728Z" transform="translate(-651.5219 -260.7406)"/><path d="M788.7876,513.1711c-.16,1.62-.3379,3.2375-.4729,4.859-.103,1.2378-.0787,1.24-1.6471,1.1065v-6.1527c.771.075,1.4578.1418,2.15.2135Z" transform="translate(-651.5219 -260.7406)"/><path d="M879.3973,321.3651c-1.9454-1.1883-4.04-2.1944-5.527-4.3662C875.9283,316.77,878.7743,318.9866,879.3973,321.3651Z" transform="translate(-651.5219 -260.7406)"/><path d="M881.6372,546.0212a11.419,11.419,0,0,1-1.6783,1.2133,8.8279,8.8279,0,0,1-1.6374-2.005c-.0745-.1274.7961-1.0414.8821-.9915A25.129,25.129,0,0,1,881.6372,546.0212Z" transform="translate(-651.5219 -260.7406)"/><path d="M838.8913,413.6672c-.1013,1.6514-.62,2.8127-2.1425,2.3519-1.02-.3086-2.31-1.008-1.3981-2.7447C836.5045,413.5281,837.2528,416.48,838.8913,413.6672Z" transform="translate(-651.5219 -260.7406)"/><path d="M793.38,498.4026l7.4373.6355c-1.5755.9994-6.0016.6216-7.4-.6788Z" transform="translate(-651.5219 -260.7406)"/><path d="M834.31,407.4318c.8488-1.6925,2.277-1.7654,3.86-.3707Z" transform="translate(-651.5219 -260.7406)"/><path d="M809.1163,493.2738l.4821,2.3832-.5864.32c-.3944-.47-1.11-.9543-1.0907-1.4067.0186-.43.805-.8279,1.2547-1.2394Z" transform="translate(-651.5219 -260.7406)"/><path d="M808.4115,498.1074l-.7464-2.1095.4594-.2938,2.1127,2.48-.3307.39q-.78-.2656-1.56-.5306Z" transform="translate(-651.5219 -260.7406)"/><path class="cls-1" d="M814.5413,449.1019l-9.1024.4082-.0231-.6142h9.1067Z" transform="translate(-651.5219 -260.7406)"/><path class="cls-5" d="M950.4064,459.7114c-.7248-1.5543-1.9364-2.894-2.5738-4.4737-.8228-2.0389-1.0792-4.3127-1.9511-6.3244-2.6267-6.0608-5.4117-12.0536-8.1758-18.0542-2.8944-6.283-5.747-12.5877-8.78-18.8036-3.4762-7.1228-7.1244-14.1619-10.7153-21.2285-.61-1.2-1.3076-2.3547-1.9647-3.53l-.3509.0282a6.6058,6.6058,0,0,0-.3309-1.7271c-2.0137-4.0953-4.0456-8.1824-6.1354-12.2394-3.1332-6.0828-6.2472-12.1773-9.4976-18.1975q-7-12.9661-14.2063-25.8208c-1.1033-1.9757-2.504-3.7859-3.7786-5.6649-.516-.7606-2.0517-1.2209-.7048-2.5219.0628-.0607-.1393-.44-.2632-.6429-2.9938-4.9087-5.7393-9.9941-9.0576-14.673a188.1717,188.1717,0,0,0-12.9909-16.539c-4.1716-4.6713-8.0632-9.9417-14.5152-11.8817-3.0313-.9114-6.1269-1.614-9.2058-2.36-1.4473-.3505-2.9286-.5574-4.3863-.8682-1.6886-.36-3.35-.9164-5.0549-1.1176-5.0521-.5961-10.122-1.04-15.18-1.5882a37.0175,37.0175,0,0,0-3.718-.63c-4.6777-.014-9.3559.1743-14.0334.1556a30.89,30.89,0,0,0-13.3058,3.0691,88.283,88.283,0,0,0-11.3474,6.4112,114.246,114.246,0,0,0-11.11,8.4728c-1.3986,1.2-2.1046,3.1942-3.1781,4.7918a7.5618,7.5618,0,0,1-1.8678,2.3046,7.8838,7.8838,0,0,0-3.4853,4.5943c-.3606,1.1308-1.562,2.0155-2.4523,2.9463-.4657.4868-1.2582.7206-1.5961,1.2608-3.1488,5.0345-6.4428,9.9947-9.2911,15.1975-7.4371,13.5846-14.8113,27.2076-21.9456,40.9528-7.0881,13.6566-13.8537,27.4806-20.7576,41.2327-.1631.3247-.29.6678-.4324,1.0028-.757,1.7773-1.455,3.5826-2.2847,5.3252-1.1575,2.43-2.4134,4.8142-3.7576,7.4762,2.42-1.4178,4.46-2.7567,6.6279-3.8427,2.1169-1.0608,4.3633-1.8634,6.5529-2.7793l.3334.6918c-.6146.3723-1.2028.8-1.8483,1.1072-2.9095,1.3843-5.8538,2.6969-8.741,4.1255a8.1565,8.1565,0,0,0-1.6712,1.52l.2585.1664,10.24-4.5058.3922.6943a17.0424,17.0424,0,0,1-1.8869,1.2c-2.9139,1.3718-5.8666,2.6621-8.7653,4.0646a6.91,6.91,0,0,0-1.4975,1.4028l.2571.1607,10.1361-4.3046q.1992.3413.3982.6825a14.2108,14.2108,0,0,1-1.7118,1.0941c-2.9269,1.3452-5.8921,2.6082-8.8009,3.99a8.7855,8.7855,0,0,0-1.7585,1.5022l.2381.2046,10.3908-4.2406q.1762.3858.3524.7716a13.2681,13.2681,0,0,1-1.8829,1,39.7626,39.7626,0,0,0-11.825,6.0337,13.0246,13.0246,0,0,0-1.2818,1.28l13.1952-6.0767.4651.86a11.6056,11.6056,0,0,1-1.89,1.1015c-4.3762,1.5649-8.6339,3.3508-12.2952,6.2984a6.678,6.678,0,0,0-.9171,1.0009l13.302-6.02.4617.8725a8.64,8.64,0,0,1-1.6939,1.0492c-4.5818,1.5485-9.0152,3.3794-12.8086,6.4735a12.9105,12.9105,0,0,0-1.2887,1.4013c4.6436-3.0334,10.8915-5.8442,14.4523-5.9836a4.6254,4.6254,0,0,1-1.6335,1.2331c-2.6978,1.1185-5.5221,1.9815-8.1038,3.3173-2.9078,1.5046-5.6911,3.0047-6.996,6.6469-2.178,6.08-5.0889,11.8944-7.6215,17.85-.8716,2.05-1.582,4.172-2.2771,6.29-.4809,1.4653-.8093,2.9806-1.1894,4.4115a69.1651,69.1651,0,0,1,7.0741-1.7557,5.6761,5.6761,0,0,1,6.43,3.7367,28.7464,28.7464,0,0,1,1.9669,6.8077c1.9272,14.116,3.5856,28.2693,5.577,42.3758,2.0253,14.3479,4.2548,28.6685,6.544,42.9772,1.32,8.25,5.7517,12.0107,13.9216,12.126q22.28.3141,44.561.5291c16.8032.1468,33.6071.3073,50.4105.2962,14.37-.01,28.74-.2648,43.111-.3891,10.2311-.0886,20.4639-.0622,30.6937-.2273,14.0031-.226,28.0041-.5875,42.0061-.8842a7.764,7.764,0,0,0,5.38-1.9,16.5579,16.5579,0,0,0,5.1421-9.4575c.7858-4.3724,1.4511-8.77,2.03-13.1754,3.0238-23.0022,5.96-46.0161,9.0435-69.01a73.1024,73.1024,0,0,1,2.4458-10.7982,5.0463,5.0463,0,0,1,4.2967-3.7873,12.4375,12.4375,0,0,1,7.7579,1.5128c.5368.3064,1.0918.5808,1.6385.87l.3519-.3509C952.8608,465.4249,951.72,462.528,950.4064,459.7114ZM701.0239,512.31c-1.85,2.6826-4.0345,2.5945-5.6774-.198-2.4731-4.2036-1.9472-13.1,1.0031-16.9706,1.68-2.2045,4.0562-2.1538,5.1821.4018a61.9033,61.9033,0,0,1,2.303,7.5848C703.3235,506.4687,702.9019,509.5859,701.0239,512.31ZM741.7354,314.6c.6915-.6687,1.9132-.8048,2.9188-1.1012a2.4436,2.4436,0,0,1,.49.9011c-2.1764,1.7854-4.39,3.5257-6.6148,5.2509-.0631.0489-.3024-.13-.7085-.3168A51.4309,51.4309,0,0,1,741.7354,314.6ZM713.7638,541.4658c-.4093,1.1264-1.363,2.5567-2.3619,2.8509-1.5433.4545-2.5337-1.1384-2.9554-2.4269-1.0482-3.2033-1.8379-6.4913-2.643-9.4233a49.7381,49.7381,0,0,1,1.408-6.1457c1.0127-2.735,3.14-2.9845,4.6238-.473a21.5119,21.5119,0,0,1,2.2135,5.9072A16.7394,16.7394,0,0,1,713.7638,541.4658Zm15.0824-31.539a26.8689,26.8689,0,0,1-9.99,10.4,9.773,9.773,0,0,1-2.336,1.0093c-1.8439.5127-2.7954-.3245-2.644-2.8713a21.4378,21.4378,0,0,1,1.2748-2.9455,27.5824,27.5824,0,0,1,9.47-9.69c1.4261-.8751,3.2007-2.022,4.687-.6016C730.8229,506.6755,729.6393,508.4775,728.8462,509.9268Zm22.1647-101.7385c-.5956,10.5015-3.9667,19.91-11.7641,27.2828a17.9148,17.9148,0,0,1-5.8818,3.4818c-2.8619,1.0884-5.23.0753-6.9849-2.4384-2.389-3.4223-2.6841-7.3556-2.72-12.3817.5556-8.88,3.3084-18.04,9.7379-25.7541a19.2685,19.2685,0,0,1,6.28-4.8081c3.8661-1.8693,7.3075-.366,9.3127,3.4336A20.901,20.901,0,0,1,751.0109,408.1883Zm87.3469-1.4085-3.86.3707C835.3463,405.458,836.7745,405.3851,838.3578,406.78Zm-5.4916,1.1918,2.1647,1.5779.7662-1.3295c.4162.6026.7625,1.104,1.1917,1.7256l1.5865-1.0317.3411.4159a11.5711,11.5711,0,0,1-1.9672,1.5564,13.0945,13.0945,0,0,1-2.6329.6671l-.2634-.59c-.092.1-.239.2047-.2226.2487a18.45,18.45,0,0,0,1.7384,4.2772,3.4942,3.4942,0,0,0,2.8756,1.3629,3.9274,3.9274,0,0,0,2.521-2.4635,35.63,35.63,0,0,0-.1556-6.6,7.0238,7.0238,0,0,0-.1888-.6912c-.0156-.1.0819-.2172.1279-.3267,2.3635,2.33,1.8407,8.6783-.8548,10.4347a3.9584,3.9584,0,0,1-5.0869-1.0273A10.4079,10.4079,0,0,1,832.8662,407.9716Zm6.2125,5.4143c-.1012,1.6514-.62,2.8127-2.1424,2.352-1.02-.3086-2.31-1.008-1.398-2.7448C836.692,413.2468,837.44,416.1982,839.0787,413.3859ZM792.31,407.4325a27.2137,27.2137,0,0,1,5.0839-13.7223c6.037-8.194,15.8512-8.2555,22.02-.1374,3.9991,5.2628,5.3713,11.3757,5.5416,18.1433-.2181,6.9709-1.8725,13.7237-7.1046,19.1319-5.5169,5.7026-13.3606,5.6515-18.7449-.1495C792.9794,424.0974,791.4621,416.071,792.31,407.4325Zm15.2335,35.879c-2.7861,1.2364-6.1818.177-8.8244,1.9946l7.8833.394q.0048.4878.0093.9755l-6.137.4131-.0139.3c2.0622,0,4.1318-.1082,6.1846.0309,1.99.1349,3.9637.524,5.9445.8015l.1356-.5246-1.273-.7392h6.401l.0027-.4538-9.4986-.43-.0033-.1384,10.9341-.5756c-3.381-1.407-6.8441-.1553-9.6476-1.7787l.18-.8734,10.357,2.0479c-.0025.0132.0574-.2975.1173-.6082l.4383-.3928a6.9816,6.9816,0,0,1,1.04,1.6709,1.9233,1.9233,0,0,1-.2036,1.6326,7.34,7.34,0,0,1-2.913,1.7412c-6.5482,1.3593-13.1353,1.8086-19.7252.208a3.2214,3.2214,0,0,1-1.3376-.56c-.7848-.6827-1.9566-1.41-2.0659-2.238-.1027-.778.9571-1.71,1.5053-2.5737l.4912.28-.61,1.1965C800.3364,443.5353,803.7493,442.485,807.5439,443.3115Zm-42.1026-3.0694c.22-3.1245.569-6.24.8641-9.359l.3025.0258c-.2143,2.6488-.6092,5.2986-.5967,7.9464a51.1948,51.1948,0,0,0,.6563,9.608c1.2118,6.15,6.0351,9.62,13.45,9.712,7.4851.0925,14.9741-.22,22.4617-.24,11.0848-.03,22.17.0356,33.2549.0718,6.3782.0209,7.9886-.5575,12.7068-4.6451-1.3019,2.6939-5.1651,4.8519-9.2823,4.88-8.7043.06-17.41-.07-26.1141-.02q-16.4442.0948-32.8872.362c-8.6395.1343-14.0625-4.6274-14.8129-13.2321A32.6638,32.6638,0,0,1,765.4413,440.2421ZM815.24,513.7a12.747,12.747,0,0,1,.0184,1.8188c0,2.6157.0919,2.6872,3.0868,2.18-.2186-1.189.972-2.8041-1.3015-3.0688h2.9176a8.6121,8.6121,0,0,1,.195,1.1043c.1044,2.4413.09,2.45-2.3163,2.4556-4.3.01-4.2242.0072-4.3852-4.2049-.0654-1.7118.3511-2.4877,2.1813-2.2772,1.138.1309,2.3058-.019,3.4548.0482a1.7915,1.7915,0,0,1,.9669.5657c.0635.06-.1761.66-.33.685a2.2,2.2,0,0,1-1.202-.1289c-.4941-.2226-.8834-.7655-1.382-.8734C815.8406,511.7222,815.01,512.1265,815.24,513.7Zm4.6322-4.1742c1.4783-2.8042,1.2273-3.7878-1.5865-5.2356-2.0991-1.08-4.3715-1.8228-6.4733-2.8985a14.2043,14.2043,0,0,1-2.972-2.3309c-.2486-.2289-.17-.8135-.2409-1.2347l-.01-.0285a18.4983,18.4983,0,0,0,3.27,2c2.272.8423,4.68,1.3164,6.9539,2.1552a11.5122,11.5122,0,0,1,3.561,2.1037c2.0614,1.8174,1.6367,3.8562-.8895,4.9537C821.0071,509.2178,820.4894,509.3317,819.8718,509.5259Zm-14.6076,4.4766c-.0623-.4971-.4041-1.2539-.7674-1.3534a2.4957,2.4957,0,0,0-2.0335.19c-.953.9561-.367,1.5648.4063,1.6363-.3862,1.1571-.7784,2.3321-1.2422,3.7214-.8143.269-1.48.1041-1.3935-1.2466.0389-.6043.0248-1.2132.0114-1.82-.0271-1.23-.1294-2.3875,1.51-2.8474a5.3447,5.3447,0,0,1,4.9963.6145c.3432.2628.3117,1.0992.3359,1.6764.0478,1.14.0141,2.2826.0141,3.4594-1.39.422-1.8937.07-1.8172-1.1238A15.5292,15.5292,0,0,0,805.2642,514.0025Zm.7871-10.0071-.0086.0021c-.6772-.5486-1.3789-1.0706-2.02-1.6586-3.043-2.7919-3.3229-6.242-.5984-9.3551a46.748,46.748,0,0,1,4.0981-3.74c-5.146.9994-5.146.9994-6.58.5152l8.3586-2.6472-6.9094-3.0374.0919-.322c1.0134.1642,2.0218.3874,3.0418.4742a8.7052,8.7052,0,0,0,2.5408-.06c3.7223-.8064,3.716-.8359,6.687,1.3537-.241-1.0855-.482-2.1712-.7459-3.36,2.2606,1.5842,3.0435,3.9373,3.7391,6.3951.5253,1.8562,1.3007,3.64,1.8883,5.4807a5.4755,5.4755,0,0,1,.3041,2.2653c-.0379.3019-.9263.8136-1.2664.7083a27.7943,27.7943,0,0,1-5.2508-1.9966,17.9166,17.9166,0,0,1-3.1364-2.8468l-.9464.7968c-.1229-.4523-.2468-.905-.3807-1.3928-4.3451,2.7488-3.5975,9.4195,1.2524,13.2026Zm-5.0466-5.2386c-1.5537.9856-5.8739.63-7.3347-.6266Zm7.3073-3.3339,2.1127,2.4794-.3307.39-1.5124-.515q-.3645-1.03-.7289-2.06Q808.0822,495.57,808.312,495.4229Zm-.2032-1.1341c.0181-.4186.76-.806,1.2133-1.2059l.4638,2.2928-.5864.32C808.8051,495.2252,808.0893,494.7411,808.1088,494.2888Zm8.4448,4.6384c1.57-.1376,3.1521-.1941,4.7069-.4307a6.4,6.4,0,0,0,5.63-4.5062,2.9362,2.9362,0,0,1,1.5189-1.3958,23.2035,23.2035,0,0,1,3.0278-.9728l.2688.4117c-2.51.5173-3.73,2.2161-5.1241,4.1587C824.2147,499.4917,820.4113,499.8248,816.5536,498.9272Zm-56.2543,7.12c1.2711-6.4623,6.177-9.6441,11.6539-12.1791-4.7738,2.8045-9.2394,5.89-10.3885,11.8614-1.1165,5.8014,2.23,10.3551,4.33,15.2644C762.0534,516.7447,759.1116,512.0857,760.2993,506.0468Zm7.468.0874c-1.3819,1.5717-1.9423,3.8654-2.7443,5.551-1.7093-3.505-.8748-8.9436,2.4891-12.374,4.3965-4.4831,9.8248-7.1271,16.12-7.0181,2.7965.0485,5.5839,1.3989,8.3375,2.2775.39.1243.6071.9077.8261,1.42.2822.6592.4969,1.3471.7353,2.0252-.4563-.3969-1.1815-.7795-1.2021-1.1969-.0676-1.37-.9716-1.6149-1.9622-2.0075-3.0177-1.1958-6.0373-2.2661-9.362-1.4987-.058.0134-.114.0259-.1628.0366l10.2,2.4224c-.2149,2.7193.22,3.447,2.727,3.8435,2.0821.3294,4.2333.2017,6.3324.4547a5.346,5.346,0,0,1,2.2067,1.0857c1.28.8963,2.494,1.8876,3.7332,2.8425a40.8157,40.8157,0,0,1-5.5441,1.1427c-1.6748.1261-3.3889-.3843-5.0834-.3687a26.0391,26.0391,0,0,0-4.0221.6625c-1.974-2.6621-3.5745-3.0674-6.929-1.401a35.7239,35.7239,0,0,1-4.3883,2.1036c.9443-1.3561,1.9293-2.6865,2.8119-4.0816a8.0851,8.0851,0,0,0,.6212-1.797,5.1144,5.1144,0,0,0-1.8279-.5559C776.324,500.2731,771.39,502.0142,767.7673,506.1342ZM789.1229,512.9c1.1315-.0937,2.2531-.2349,3.3751-.243.2142-.0015.6257.5913.61.8917a11.1758,11.1758,0,0,1-.4568,2.003l.7568,3.1386c-1.4817.3439-1.9556-.013-1.9807-1.2544a5.9911,5.9911,0,0,0-.7218-1.896c.2445-.5651.5922-1.3691,1.0625-2.4564Zm-.15.0086c-.1592,1.6132-.3366,3.2249-.4711,4.84-.103,1.2378-.0787,1.24-1.6471,1.1064v-6.1527Zm-11.0522,6.2206a43.397,43.397,0,0,1-5.2073,1.3018v-6.9129a34.844,34.844,0,0,1,4.332.0405,2.8768,2.8768,0,0,1,.8753,5.5706Zm61.6751,19.08c-4.3075,2.5065-12.4182,2.6789-16.517.58,4.6473-.4984,9.7243-.7085,14.6537-1.6729,4.2432-.83,6.0413-4.1138,5.3792-8.2107-.4156-2.5716-1.7784-4.2158-4.3422-4.471a22.1035,22.1035,0,0,0-6.3265.2838c-5.9147,1.1506-11.2889,3.7943-16.631,6.4711-6.3364,3.1749-12.92,5.0312-20.0976,3.9314-6.3391-.9711-11.3372-4.4212-16.35-8.693,2.1573-.301,3.9837-.5966,5.8213-.78a1.64,1.64,0,0,1,1.222.5289c5.1959,6.32,12.1068,7.146,19.5781,6.1373,4.6669-.63,8.7765-2.8265,12.9983-4.7165,5.2391-2.3456,10.5622-4.4456,16.3927-4.7859,4.8346-.2822,8.071,1.8252,8.8816,5.7855C844.9625,532.037,842.9016,536.2857,839.5962,538.2091Zm-13.48-23.1264c.0464-1.8268,1.6926-3.0911,4.0184-3.0864,2.4606.005,4.3945,1.4961,4.4361,3.42.0391,1.8046-1.634,3.1623-3.93,3.1893C828.1028,518.6357,826.0658,517.0494,826.1158,515.0827Zm21.6948.9133a25.1367,25.1367,0,0,0-.0226,3.1371c-1.2329.45-1.8136.1071-1.7538-1.2461.0294-.6642-.0459-1.333-.0708-2-.0864-2.3171-.248-2.4531-2.9143-2.3067v5.2638c-1.4475.4164-1.9478-.0624-1.9089-1.2694.0234-.7266-.0269-1.4555-.0382-2.1833-.0379-2.4448.1175-2.6051,2.5212-2.5117a15.0715,15.0715,0,0,1,1.6262.1624C846.9387,513.2933,848.07,513.9862,847.8106,515.996Zm-7.3992-16.3507c-1.6258.0661-2.3133,1.0142-1.8186,2.6225a36.2814,36.2814,0,0,0,1.8954,4.193c-1.1421-.743-2.11-1.402-3.1075-2.011a6.98,6.98,0,0,0-1.9435-.9828,3.8354,3.8354,0,0,0-2.405.0074c-.3856.203-.2761,1.3467-.3943,2.101-3.5044-2.1426-3.93-2.14-7.1684-.1307l-5.7364-4.6555a63.5448,63.5448,0,0,0,6.0818-2.3533,4.8126,4.8126,0,0,0,3.0419-4.0467c.0193-.3117.4193-.6736.7305-.882,3.0472-2.0413,6.1872-2.3757,9.43-.4415a2.9994,2.9994,0,0,0,.6759.2444c.0365.011.0985-.0625.3272-.2194l-2.8308-1.5442.0263-.2353a12.027,12.027,0,0,1,1.3722.1861c6.4555,1.6218,11.85,4.7894,15.13,10.8045,1.7592,3.2257,1.7513,6.6208.1907,10.5222-.1151-.8453-.1991-1.2-.2066-1.5563C853.5317,503.1714,847.99,499.3371,840.4114,499.6453Zm12.7067,20.1615c.4594-1.0306.9111-2.0647,1.38-3.0912.68-1.49,1.4913-2.932,2.0388-4.4686,2.1287-5.9747.7023-11.2888-4.0692-15.4842-.6621-.5823-1.36-1.1233-2.362-1.9463C860.4733,500.08,861.4084,511.26,853.1181,519.8068Zm26.4667-198.723c-1.9455-1.1883-4.04-2.1944-5.5269-4.3661C876.1158,316.4887,878.9618,318.7054,879.5848,321.0838Zm-13.602,81.4243a18.9856,18.9856,0,0,1,1.4814-5.4248c2.1148-4.8676,6.6544-6.2481,11.1042-3.29a22.2139,22.2139,0,0,1,5.2391,4.7354c6.0846,7.8533,8.9227,16.9019,9.4322,27.6531a57.8151,57.8151,0,0,1-1.3042,6.8423c-1.6453,5.4872-5.9158,7.3406-10.7656,4.3425a26.4929,26.4929,0,0,1-7.3075-6.71C867.7667,422.32,864.8534,412.9189,865.9828,402.5081Zm21.01,127.44c-.3241.3793-.6993,1.2111-1.1791,1.2765a2.0287,2.0287,0,0,1-1.7332-.8612,20.3375,20.3375,0,0,1-1.1071-4.5527c-.0581-.4446.77-1.4575.9992-1.4028.7205.1712,1.6919.58,1.9433,1.1645A26.6632,26.6632,0,0,1,886.9929,529.9485Zm-16.33-5.2064a2.0619,2.0619,0,0,1,2.4837,2c.2271,1.337.9342,2.6191-1.1325,3.22,2.0867,3.262,2.1371,3.59.0527,4.6635a8.0147,8.0147,0,0,1,1.2038,1.9131,2.1783,2.1783,0,0,1-.2374,1.8634,1.9822,1.9822,0,0,1-1.9162.1608,4.467,4.467,0,0,1-1.5178-2.4912c-.3065-2.9383-.3474-5.9051-.4654-8.862C869.0883,526.06,869.2255,524.8853,870.6632,524.7421Zm-.6169,20.4639a8.9241,8.9241,0,0,1-.4527-2.68c.1773-1.2634-.6173-2.91,1.2048-3.1118,1.9294-.2135,1.8807,1.484,2.0211,2.7921a8.7268,8.7268,0,0,1,.0486,2.5338c-.113.5855-.7087,1.5632-.9968,1.5314A2.5441,2.5441,0,0,1,870.0463,545.206Zm4.1011,22.48a3.5605,3.5605,0,0,1-1.8038-1.8719,42.5035,42.5035,0,0,1-.9666-5.9167c-.3219-2.7735-.5267-5.56-.8163-8.3378-.1383-1.3255-.2754-2.7449,1.3336-3.1558,1.6828-.43,2.09.9474,2.5181,2.2088.4825,1.422.9255,2.7473-1.09,2.892.5856,1.0057,1.1619,1.93,1.6742,2.8895.8855,1.6573-1.2237,1.3009-1.5448,2.1521,2.6406,2.0187,2.7926,3.44.3655,4.8331.4442.29.9827.4487,1.1443.7869a6.2184,6.2184,0,0,1,.788,2.573C875.7468,567.0881,874.47,567.85,874.1474,567.6862Zm3.7742-41.9358a3.0048,3.0048,0,0,1,3.4431,1.4391c1.308,1.956-.06,4.9736-2.4175,5.5467-1.4386-1.06-3.05-1.931-2.84-4.18C876.2313,527.2288,876.5383,526.1379,877.9216,525.75Zm1.07,7.0288c.5871.4865,1.2085.9393,1.7414,1.4793a4.856,4.856,0,0,1,1.033,1.4491c.68,1.6033.1764,3.4023-1.0369,4.0011-1.1674.5762-2.8644-.2389-3.72-1.7869C875.8476,535.8215,876.4019,534.3847,878.9915,532.7792Zm2.8332,12.9608a11.4338,11.4338,0,0,1-1.6783,1.2133,8.8262,8.8262,0,0,1-1.6374-2.0051c-.0745-.1273.7961-1.0413.8821-.9915A25.1154,25.1154,0,0,1,881.8247,545.74Zm-2.107,4.0279c1.5062-.0093,3.0787,1.9468,3.1059,3.8637.0238,1.6753-.8187,2.7222-2.2089,2.7443-1.7741.0283-3.374-1.8848-3.37-4.0292A2.4841,2.4841,0,0,1,879.7177,549.7679Zm2.51,16.26a3.8406,3.8406,0,0,1-2.7153-.7987c-.5249-.37-1.6778-1.0644-.6057-2.1255a.6747.6747,0,0,0,.1274-.4392c-1.8293-.9922-.4025-1.8907.2187-2.5112a1.9044,1.9044,0,0,1,3.0251.2753,32.6934,32.6934,0,0,1,2.1144,3.413C883.5514,564.7437,883.0021,565.8318,882.2274,566.0275Zm2.0462-13.997c-.0288-1.1957.4174-2.0114,1.7333-2.078,1.1943-.06,2.5085,1.3825,2.5386,2.8362a2.0237,2.0237,0,0,1-1.9276,2.2414C885.4949,555.1715,884.3083,553.5871,884.2736,552.0305Zm1.3957,7.7162a1.6777,1.6777,0,0,1,1.88-1.7577c1.1884-.0033,2.4769,1.5448,2.4723,3.5448a6.617,6.617,0,0,1-2.08,1.4588C886.9227,563.2705,885.6033,561.2451,885.6693,559.7467Zm5.9975,8.0731c-.3187.1846-.833.0315-1.2585.0315l-.003.0713c-.6051-.0419-1.3589.1248-1.78-.1753a3.0677,3.0677,0,0,1-1.3331-1.84c-.0383-.4524.8524-1.2715,1.4553-1.4246a5.5926,5.5926,0,0,1,3.0555-.0086c.7255.2531,1.2034,1.2161,1.7913,1.8638A16.923,16.923,0,0,1,891.6668,567.82ZM901.79,520.3824a6.8277,6.8277,0,0,1-2.2763-.6091,25.5229,25.5229,0,0,1-11.0381-10.5877c-.7883-1.3942-1.8041-3.1664-.3728-4.554,1.4211-1.3777,3.1367-.33,4.5429.4844a26.7487,26.7487,0,0,1,10.06,10.3562,20.97,20.97,0,0,1,1.1389,3.0463C903.7862,519.9609,903.0422,520.5148,901.79,520.3824Zm9.2305,13.9751-2.7545-2.66a9.1853,9.1853,0,0,0-.4141,2.0309c.0239,1.535.1858,3.0684.3089,4.601a5.93,5.93,0,0,0,.29,2.3044c.8512,1.515-.2378,2.1263-1.1322,2.736-1.0508.7165-1.845.0728-2.4-.8431a6.2273,6.2273,0,0,1-.7441-1.6552,20.9319,20.9319,0,0,1,1.44-15.072,4.053,4.053,0,0,1,2.8037-2.0716c.7427-.0134,1.7984,1.4518,2.2164,2.4651C911.65,528.654,911.6106,531.2681,911.02,534.3575Zm11.2517-23.188c-1.605,2.9326-4.0306,3.0834-5.9062.2817-1.8532-2.7682-2.3982-5.9266-2.7986-9.2976a54.7724,54.7724,0,0,1,1.9082-6.9489c1.1437-2.7659,3.4939-2.9133,5.3544-.5873C923.8229,498.36,924.5728,506.9656,922.2719,511.17Z" transform="translate(-651.5219 -260.7406)"/><path class="cls-6" d="M780.8417,493.3489l-.0022,0C780.643,493.3909,780.7088,493.3781,780.8417,493.3489Z" transform="translate(-651.5219 -260.7406)"/><path class="cls-7" d="M775.2621,514.1958a1.6525,1.6525,0,0,0-1.1555,1.0723c-.1429,1.4253-.0553,2.8736-.0553,4.65a10.4012,10.4012,0,0,0,2.0218-.3437c1.5744-.6434,1.8037-2.0075,1.591-3.4711A2.03,2.03,0,0,0,775.2621,514.1958Z" transform="translate(-651.5219 -260.7406)"/><path class="cls-8" d="M832.5781,515.77c.0224-1.79-.9178-2.9736-2.413-3.0367-1.4575-.0615-2.3723.9012-2.4194,2.546-.052,1.82.9982,3.1333,2.5251,3.1587C831.6779,518.4615,832.5572,517.4448,832.5781,515.77Z" transform="translate(-651.5219 -260.7406)"/><path d="M790.8969,319.6382c.4762-.0551.9512-.1418,1.4288-.1591a1.673,1.673,0,0,1,1.8946,1.9084c-.2563,4.6645-.5612,9.3268-.766,13.9935a1.8739,1.8739,0,0,1-1.82,1.97c-2.2859.3593-4.5838.6407-6.8739.9744-4.7774.6963-9.5516,1.4146-14.33,2.1055-1.8.26-2.2808-.2918-1.982-2.1019.5843-3.54,1.1611-7.0821,1.7024-10.6291.5076-3.3261,2.2539-5.2011,5.725-5.6853,5.0182-.7,9.9963-1.6864,14.9916-2.5506Zm-13.9712,5.0494c-1.784-.3984-2.4244-.0423-2.7069,1.5712-.3852,2.2-.7088,4.4109-1.0637,6.6164-.406,2.5233.7079,4.0756,3.2609,3.9769a79.5254,79.5254,0,0,0,9.41-.9526,4.497,4.497,0,0,0,3.9478-3.6755c.13-1.7542.212-3.5121.2972-5.2693.0282-.5828.1856-1.29-.7919-1.2456-.795.0364-1.6389-.0635-1.6946,1.1515-.0712,1.5559-.2478,3.1067-.3648,4.6608-.1292,1.7176-.7238,2.6614-2.3261,2.8785-2.49.3374-5.0107.5008-7.5238.6013-1.2645.0506-1.7677-.6514-1.6682-1.9292.062-.796.1528-1.5915.2727-2.3808C776.2792,328.6864,776.6076,326.6852,776.9257,324.6876Z" transform="translate(-651.5219 -260.7406)"/><path d="M845.46,325.0035l-.474-1.7254a1.3664,1.3664,0,0,1,1.9006,1.0733c.9,3.0652,1.7731,6.1385,2.6529,9.21.185.6459.3544,1.2963.5848,2.1421-1.9056-.0623-3.69-.0972-5.4723-.1859-1.5567-.0775-3.1106-.2135-4.6654-.327-2.9665-.2165-4.3911-1.44-5.0121-4.3048-.1438-.6635-.3233-1.3229-.4129-1.994-.3586-2.6874,1.1382-4.1613,3.8417-3.961,2.1886.1622,4.3885.1731,6.5836.2424A1.8544,1.8544,0,0,0,845.46,325.0035Zm2.493,9.13c-.6775-2.6039-1.2563-4.9108-1.9055-7.1977-.0656-.2312-.5515-.4777-.8494-.487-2.3527-.073-4.7074-.1281-7.0609-.109a1.7587,1.7587,0,0,0-1.8746,2.1111,13.7507,13.7507,0,0,0,.7861,3.6062,2.7655,2.7655,0,0,0,1.7724,1.5441C841.7382,333.9061,844.6806,333.9669,847.9532,334.1333Z" transform="translate(-651.5219 -260.7406)"/><path d="M828.9521,328.3554a2.4333,2.4333,0,0,0-2.7246-2.1061c-1.958.0127-3.9182.045-5.8723.1574-1.0995.0633-1.4863-.3183-1.1762-1.4984.628-.0241,1.2925-.067,1.9573-.0718,1.678-.0121,3.3561-.0068,5.0342-.009a4.347,4.347,0,0,1,4.7135,4.3129c.0713.9141.2407,1.8206.3661,2.7305.1189.8627.2389,1.7252.3477,2.51-.1712.145-.2312.24-.29.239-3.4711-.0529-6.9426-.0946-10.4125-.1926a6.2871,6.2871,0,0,1-1.7355-.436,2.41,2.41,0,0,1-1.8251-2.27,2.4653,2.4653,0,0,1,1.4719-2.5335,7.5542,7.5542,0,0,1,2.6368-.6393c2.0329-.1219,4.0743-.1008,6.1122-.1413C827.9836,328.3994,828.4111,328.3761,828.9521,328.3554Zm-4.3832,1.5664-.0048-.1259c-1.196.046-2.3944.06-3.5874.148A1.78,1.78,0,0,0,819.1,331.46a1.9079,1.9079,0,0,0,1.7153,1.9753,9.12,9.12,0,0,0,1.6679.115c1.516-.0027,3.0324-.0671,4.5478-.0479,2.83.036,2.81.057,2.3119-2.715-.1308-.7287-.45-1.0483-1.1871-1.0087C826.9613,329.8432,825.7648,329.8759,824.5689,329.9218Z" transform="translate(-651.5219 -260.7406)"/><path d="M800.9418,325.5277c4.5926-.1765,9.1389-.3619,13.6867-.4941.2262-.0065.6559.4557.648.6881a.98.98,0,0,1-.6571.7019c-1.1115.1082-2.2347.094-3.3534.1314-2.5806.0864-2.3247-.2426-2.2777,2.3384.03,1.6385.0282,3.2776.0356,4.9165a3.38,3.38,0,0,1-.0881.4846l-1.5166.228c-.073-1.9011-.1311-3.6813-.2122-5.46-.1226-2.6893.24-2.3553-2.4391-2.2635-.9589.0329-1.9207.0425-2.8749.13C800.8763,327.0223,800.574,326.6263,800.9418,325.5277Z" transform="translate(-651.5219 -260.7406)"/><path d="M798.36,331.3735a6.7858,6.7858,0,0,1-1.3091.0263c-.2324-.0372-.5818-.3084-.5952-.4946-.0153-.2123.2659-.6237.45-.6431a26.1,26.1,0,0,1,2.9792-.1284c.1571.0015.434.3478.4332.5338a.7374.7374,0,0,1-.4144.5764,10.3362,10.3362,0,0,1-1.5458.0863Z" transform="translate(-651.5219 -260.7406)"/><path class="cls-9" d="M755.1519,330.6891" transform="translate(-651.5219 -260.7406)"/></svg>