<svg id="Layer_2" data-name="Layer 2" xmlns="http://www.w3.org/2000/svg" viewBox="0 0 252.5842 50.1357"><title>Patalex</title><path d="M714.5189,641.6953c-2.5286-.5493-5.0692-1.0432-7.7624-1.594,0-4.315-.0407-8.7546.0136-13.1931.04-3.2757.122-6.5559.3589-9.8216.0791-1.09.9032-2.1184,1.0255-3.2152.2975-2.6708.3915-5.3648.5673-8.1088-4.8274-1.5-9.68-2.8312-14.4242-4.5071a1.7157,1.7157,0,0,1,.5826.7355,2.7743,2.7743,0,0,1,.183,1.1294c-.0775,3.7727.0826,7.5506.1662,11.326.009.4076.0526,1.1173.2319,1.17,1.389.4078.9878,1.5185,1.0027,2.4113.04,2.3753.0133,4.7519.0017,7.128-.0234,4.797-.03,9.5944-.1273,14.39a1.5769,1.5769,0,0,1-1.0153,1.1011c-2.2622.4383-4.5757.6268-6.8232,1.1213-2.1271.4679-3.155,2.12-3.0966,4.5331.0471,1.9464,1.5655,2.4049,3.0254,2.8878a8.31,8.31,0,0,0,1.2426.2784c8.9178,1.4908,17.8741-.0224,26.8113.24.846.0249,2.6188-1.8683,2.4637-2.2315C717.9852,645.2251,717.574,642.3592,714.5189,641.6953ZM700.923,628.9242c-1.2366-2.6431-.7777-5.0783.2-7.448a1.8241,1.8241,0,0,1,1.6153-.0351C703.3873,622.1544,701.9519,628.0722,700.923,628.9242Z" transform="translate(-685.4009 -599.9983)"/><path d="M934.9555,638.9618a28.3639,28.3639,0,0,0-4.3366.1493c-1.9568.19-2.7152-.3925-2.7379-2.3731-.0787-6.8855-.12-13.7715-.22-20.6566-.0206-1.414.213-2.56,1.6909-2.8451,0-3.9624-.05-7.799.0443-11.6319a3.3826,3.3826,0,0,1,.5053-1.6061c-.6267.29-1.2586.5711-1.9014.834a99.417,99.417,0,0,1-12.1812,3.9635c.01.0717.0218.14.026.2181.0427.7876-.1226,1.5886-.0577,2.3723.1957,2.3639-.6325,4.9883,1.7027,6.8451.218.1734.2366.682.2354,1.0346q-.0371,10.8771-.1126,21.7541c-.01,1.3286-.5941,1.9558-2.0865,1.7864a22.8562,22.8562,0,0,0-5.0506-.0833,4.9367,4.9367,0,0,0-4.1026,4.484c-.2357,2.6508.6531,4.1957,3.2874,4.9442a22.9993,22.9993,0,0,0,6.2665,1.0635c4.9907-.0224,9.982-.566,14.9689-.5114,3.7156.0407,5.5323-1.9869,6.853-4.9487C938.6012,641.8433,937.0268,639.08,934.9555,638.9618Zm-11.8307-13.267c-2.0689-1.44-1.6021-3.5965-1.9177-5.3871-.1964-1.1142.5754-1.7814,1.8329-1.7265C924.8835,620.9257,924.0671,623.1677,923.1248,625.6948Z" transform="translate(-685.4009 -599.9983)"/></svg>