<svg id="Layer_1" data-name="Layer 1" xmlns="http://www.w3.org/2000/svg" xmlns:xlink="http://www.w3.org/1999/xlink" viewBox="0 0 300 300"><defs><style>.cls-1{fill:#160628;}.cls-2{fill:url(#linear-gradient);}.cls-3{fill:url(#linear-gradient-2);}.cls-4{fill:url(#linear-gradient-3);}.cls-5{fill:url(#linear-gradient-4);}.cls-6{fill:url(#linear-gradient-5);}.cls-7{fill:url(#linear-gradient-6);}.cls-8{fill:url(#linear-gradient-7);}.cls-9{fill:url(#linear-gradient-8);}</style><linearGradient id="linear-gradient" x1="150.628" y1="174.5929" x2="150.628" y2="96.0128" gradientUnits="userSpaceOnUse"><stop offset="0.0943" stop-color="#682136"/><stop offset="0.4467" stop-color="#7b2136"/><stop offset="0.5171" stop-color="#6c2135"/><stop offset="0.6524" stop-color="#452133"/><stop offset="0.8155" stop-color="#0e2130"/></linearGradient><linearGradient id="linear-gradient-2" x1="156.9052" y1="111.3176" x2="156.9052" y2="67.9466" xlink:href="#linear-gradient"/><linearGradient id="linear-gradient-3" x1="149.3422" y1="203.4273" x2="149.3422" y2="154.445" xlink:href="#linear-gradient"/><linearGradient id="linear-gradient-4" x1="157.9821" y1="83.1701" x2="157.9821" y2="50.3602" xlink:href="#linear-gradient"/><linearGradient id="linear-gradient-5" x1="145.1604" y1="255.4271" x2="145.1604" y2="187.5823" xlink:href="#linear-gradient"/><linearGradient id="linear-gradient-6" x1="143.5681" y1="260.32" x2="143.5681" y2="248.2626" xlink:href="#linear-gradient"/><linearGradient id="linear-gradient-7" x1="161.8729" y1="62.023" x2="161.8729" y2="40.8554" xlink:href="#linear-gradient"/><linearGradient id="linear-gradient-8" x1="38.1365" y1="150.5878" x2="263.0395" y2="150.5878" gradientUnits="userSpaceOnUse"><stop offset="0" stop-color="#ac2132"/><stop offset="0.1737" stop-color="#a72132"/><stop offset="0.3693" stop-color="#9a2133"/><stop offset="0.575" stop-color="#832135"/><stop offset="0.6373" stop-color="#7b2136"/></linearGradient></defs><title>Dark PLanet</title><circle class="cls-1" cx="150.8289" cy="151.6776" r="109.8929"/><path class="cls-2" d="M55.6317,151.0014a1.1558,1.1558,0,0,1,.4082.1058c1.52.65,3.5017,3.6391,5.64,2.0742l.3771.1027q9.0527,2.4616,18.1326,4.6.3784.0891.7568.1777A4.7053,4.7053,0,0,0,83.35,159.41q.2884.0722.5981.1253c3.2493,4.8857,3.2493,2.5454,6.1973.58a6.5391,6.5391,0,0,0,.6445.1471c.1814-.0868.2391-.21.3617-.3237.46-.03.9036-.055,1.3268-.07q.2117-.0075.4162-.0119c3.46-4.53,5.74,5.6561,9.4428,3.4159.1494-.1081.0963-.1831.1057-.3552,10.4976,3.8447,22.1991,1.5044,31.1111,4.7182q.3829.05.7656.0991,6.508.8373,13.0213,1.51.3831.0394.7663.0784c2.278,2.12,6.9586,2.12,8.431.7881q.3833.0328.7666.0648,1.9166.16,3.8334.3065.3833.0294.7668.058a15.5812,15.5812,0,0,0,7.7579.5138c.1691.0173.422.0324.6776.0473q6.5412.3814,13.0838.5956.3634.012.7269.0234a24.1684,24.1684,0,0,1,7.2694.1761q.3634.0062.7269.012.53.0084,1.06.0156c.1767.0024.35.0049.4857.01,5.838-2.8317,8.1783,1.8489,12.5958,1.9658.2313.0788.4657.163.6992.2377,6.5418,2.0913,12.414-3.4606,18.2863-7.3754a7.8331,7.8331,0,0,0,.9575,4.5876c.231-.0151.4678-.0249.7029-.0349,1.8811-.08,3.6517-.1841,5.1377-.34q.3642-.0229.7286-.0463,1.8216-.1168,3.6444-.247.3647-.0259.7292-.0526c2.1415-3.8668,9.1624,3.1541,11.0747-.8055a1.8507,1.8507,0,0,1,.5946-.178q1.8234-.1746,3.6459-.3622.3745-.0386.7488-.0777a8.8332,8.8332,0,0,1,5.5673-.5515,109.9317,109.9317,0,0,0,1.5131-18.0652c0-2.4124-.1061-4.7993-.26-7.1734l-.0339.0006c-.7171.016-1.4768.0473-2.2614.0918a2.5866,2.5866,0,0,0-.4648-.3985,1,1,0,0,0-1.417.0767,3.4448,3.4448,0,0,0-.6282.2177c-1.4418.6494-2.7178,2.1669-3.8688,1.9866q-.3467.0369-.6726.0539a6.1658,6.1658,0,0,1-3.6694-.7591,4.0321,4.0321,0,0,0-.5252-.2837c-2.0325-.9152-5.1458-.4491-6.19,1.7258q-.3777.0309-.7555.0608t-.7556.06l-.6361.0494c-1.1037-.5479-3.1623-4.5265-5.5348-.8025a2.028,2.028,0,0,0,.001.4874c-2.6913,2.0578-2.6913-4.9631-6.42-2.321-.2154.05-.427.109-.6319.1776a3.1241,3.1241,0,0,0-2.4374,3.3558c-.2435.0186-.4932.03-.7445.041q-2.2613.0962-4.5236.17-.3827.0126-.7653.0244c-2.2195-2.5443-3.9658-1.67-5.8443-.17-.1878.15-.3771.3061-.5682.4658a1.9456,1.9456,0,0,0-.4952.153,1.9038,1.9038,0,0,0-.4112.2625c-3.2529-.1013-3.2529-.1013-5.5918-.1414a3.0928,3.0928,0,0,0-.292-.351,3.8488,3.8488,0,0,0-.12-.69c-.0587-.2328-.1257-.4622-.2023-.6828a.814.814,0,0,0,.0231-.3622c.59-.2143-1.7507-.2143-1.7171-.357a3.2148,3.2148,0,0,0-.5971.2025c-1.39.6155-2.76,2.1072-4.1358,1.8646q-.34-.0041-.6811-.0084t-.6811-.0094q-.6809-.01-1.362-.022c-1.9378-1.8846-4.2781,2.796-4.7764-2.0836a1.7545,1.7545,0,0,0-1.1536-.3385c-1.9475.16-3.4236,4.2312-4.4112,1.7642a3.1258,3.1258,0,0,0-.5062-.2917c-1.9168-.9-5.3422-.7248-6.3933.3271q-.3625-.02-.7253-.04-.3728-.021-.7459-.0427c.3921-3.5194-4.2885-1.1791-6.1137-3.1658a6.0741,6.0741,0,0,0,.34-.6929l.0057-.015c-1.7165-2.076-4.8639-6.7591,1.1-2.3166a.9694.9694,0,0,0,.4135.27c1.7547.6166,4.8113-1.5654,7.3717-1.1009a3.4873,3.4873,0,0,1,.6848.1964c1.2713.9647,3.6116.9647,6.9713.3091.222-.0013.4711.0054.7281.014q1.1454.0386,2.2909.0711.3818.0109.7638.0211a20.0458,20.0458,0,0,0,7.6382.1417q.382.0041.7639.0073,3.4.0289,6.8.0077a2.9476,2.9476,0,0,1,.5174.11,45.5855,45.5855,0,0,0,8.4349-.0224c.22-.0244.4342-.0509.6371-.0754a5.9962,5.9962,0,0,0,1.0753.0311c.1734-.01.34-.026.4831-.0351a1.8624,1.8624,0,0,1,1.8686-.4554c.1841.03.3714.069.5591.1118,3.8647.7283,6.205.7283,7.477-1.513.1488-.0117.3-.0259.4515-.041,1.9713-.1984,4.0331-.5946,2.5388,1.5368a1.9626,1.9626,0,0,1,.2328.1571q.2537.18.51.3862a4.21,4.21,0,0,0,.5906.0864c.9326.0606,1.588-.3414,1.6785-1.8955.1453-.0244.3105-.0473.4778-.0634a13.68,13.68,0,0,1,4.4762.3638c.127-.01.3325-.026.5531-.046,3.6-.5835,3.6-.5835,2.9088,3.614a.4953.4953,0,0,0,.1838.3525.8232.8232,0,0,0,.5077.1306c.39,0,.78,0,1.1606-.0227a6.954,6.954,0,0,0,2.0932-.59,2.9138,2.9138,0,0,0,.8182-.839,7.0152,7.0152,0,0,0,.895-3.447c.1711.0181.328.0349.4725.0494,1.59.1607,1.6805.0761,2.7715-.9376a7.0367,7.0367,0,0,1,1.3184-.4824,9.3547,9.3547,0,0,1,7.0982.9866,2.5108,2.5108,0,0,0,.2817-.6135,6.4964,6.4964,0,0,0,.2191-.9422c.1838-.0416.3811-.0808.5835-.1184l.002,0a108.8517,108.8517,0,0,0-3.97-18.329,9.2146,9.2146,0,0,0-2.361,1.13c-.2167.136-.4271.2693-.6314.3927a6.02,6.02,0,0,1-.7822.132c-.159.0183-.331.0347-.5139.0491-2.4343.179-4.7746.179-6.8156.1674-.1053-.0017-.2793-.004-.4805-.007-.6038-.0089-1.1473-.024-1.6282-.0489q-.2406-.0124-.46-.0281c-2.4109.0956-7.0915.0956-9.4409.1923a.4726.4726,0,0,0-.1861-.0031c-1.2816-.6953-2.0059-.4279-2.5153.1914a3.5307,3.5307,0,0,0-.3471.5208c-1.623,1.5345-3.9633-.8058-5.5291.4491-.1021-.107-.203-.2135-.3025-.3171-.1991-.2073-.3931-.4027-.5821-.5659a1.1718,1.1718,0,0,1-.243-.2711c.3531-4.7813-4.3275-.1007-6.6678-2.441,0,0,0,2.34-.9349,2.8557-.2017.0054-.4065.0069-.6118.0079q-1.2311.0058-2.462.0059-3.419,0-6.8381-.0449a1.7913,1.7913,0,0,0-.5669.0477c-1.5331,3.7851-2.9682,2.177-4.1567.7136a4.9819,4.9819,0,0,1-.2211-.5872,24.6977,24.6977,0,0,0-5.3821-.5954q-.31-.0034-.6279-.0023c-1.03,1.4654-3.3316,1.9888-5.32,1.5241a5.7929,5.7929,0,0,1-.6488-.1915c-.1307-1.5557-1.02-1.6505-2.1312-1.427-.2223.0447-.4535.1021-.6893.1633-4.5142-.13-11.5351,4.551-15.9081-1.3313q-.3777-.0306-.7553-.062-1.8885-.1566-3.7764-.3268-.3777-.0339-.7553-.0686c-2.0413-5.3618-6.7219-.6812-8.3146-.8336-.2425-.02-.4939-.0476-.7455-.075-.0009-1.8555-.814-2.1253-1.9316-1.9779-.2235.0294-.4592.0756-.7031.1291-1.1947-.1541-2.4889-1.0146-3.87-1.0452a3.1545,3.1545,0,0,0-.5971.0423c-4.0905-1.4235-6.3943-3.4309-9.6689-.6895a2.2518,2.2518,0,0,1-.4842.3005c-3.429,3.1212-7.5631-2.2536-12.0414-1.5337a5.1417,5.1417,0,0,0-.7495.179.7678.7678,0,0,1-.266.0351c-2.4546,2.4473-2.4546-4.5736-4.8951-1.84a.5971.5971,0,0,0-.5854-.3628c-.9875.0223-2.7734,1.6881-5.0107.4451a2.8713,2.8713,0,0,1-.6631.3094c-.9806.3148-1.92.4748-2.55-.0654-.07.156-.1491.2883-.2071.4037-2.6043,2.451-2.8117-3.2825-5.3-1.2891a2.2868,2.2868,0,0,1-.4074-.5272c-1.27-1.1516-2.777-2.9151-4.4832-1.4134-.1977-.0183-.4074-.0344-.62-.0459a18.6519,18.6519,0,0,0-4.0417.2891,2.8056,2.8056,0,0,1-.7359.032c-2.1429-.1875-3.7011-2.7334-4.6685-2.3854-.2127-.0447-.4368-.0877-.6615-.1307-3.1458-.6029-6.3017-1.232-9.1764-3.3292a4.294,4.294,0,0,0-.4235-.4565c-1.3206-1.2281-3.0758-1.2281-4.831-1.2281,0,0,0,2.34-.7921,1.8749q-.1954.0983-.3788.1707c-3.55,1.4034-3.9363-4.1385-8.0595-1.7474-.1951-.081-.3945-.1747-.5909-.2791-1.5714-.8363-2.9427-2.3716-4.3591-2.3879l-.4394-.0934c-.6349-.1351-1.4435-.3065-2.7912-.5921a1.6546,1.6546,0,0,0-.3384-.5381,5.3853,5.3853,0,0,0-2.2963-1.6275,108.9649,108.9649,0,0,0-14.5146,51.4,1.8693,1.8693,0,0,1,1.3126.74c.233-.0394.4767-.0891.7271-.1393a4.8808,4.8808,0,0,1,3.4372.14,2.7962,2.7962,0,0,1,.4988.37,2.3968,2.3968,0,0,1,3.1856-.4945C49.753,155.06,54.4336,152.7192,55.6317,151.0014Z"/><path class="cls-3" d="M61.5772,86.53q4.17,1.2425,8.347,2.417c.2463.0693.4819.14.7052.2164,2.5266,2.7081,2.5266,7.3887,7.543,1.9921a3.4155,3.4155,0,0,0,.6282.2054q.6833.18,1.3668.3574c.2278.0593.4532.1171.6685.1671,1.6812,2.3264,6.3618-4.6945,9.0052,2.2833a4.8633,4.8633,0,0,1,.5872.1133q.3079.0739.6161.1473c.2054.049.4108.0977.56.1333,2.6146-2.691,4.9548,1.99,6.2048,1.502.1638.0519.3411.099.5257.141a12.9275,12.9275,0,0,0,4.6343.0663,3.51,3.51,0,0,1,.5292-.0074c5.4058.1014,7.8622,6.9875,13.18,4.7394a3.5176,3.5176,0,0,0,.59.4172c2.266,1.2769,5.6-.093,7.673.2568.14-.0169.2791-.0374.4165-.06,2.0612-.3457,3.7623-1.2556,3.4232,1.1933a.7455.7455,0,0,0,.1851.4625c.5751.6288,1.366.19,2.3042-.2258.1875-.0833.3811-.1657.58-.2384-.1863-3.9165,4.4943.7641,6.8346-1.5762a11.09,11.09,0,0,0,.0717,1.1739c.024.1963.0559.3931.0818.5649,2.1867.6015,4.527.6015,5.9554,1.9156.077.0884.1706.1783.2585.2644,6.4067,5.4915,14.3459,3.1745,21.8069,2.3179q.3668-.0422.7322-.0793c3.3753.7555,7.3809.85,11.9553,1.1674q.196.0137.3934.0279c.87,2.0085.87,2.0085,4.38,2.0623.162.0717.3235.1366.4851.2085q.3321.1483.6656.2685c3.395,1.3067,4.3381-4.4338,6.1873-5.0236a.9969.9969,0,0,1,.4444-.039c3.6357,4.9084,8.2566,2.7288,12.9472,2.1273q.3518-.0452.7041-.0773c7.8208-4.5393,12.5014,2.4816,18.4553.49q.2014-.01.402-.02c1.5254-.08,3.0094-.1875,4.4608-.3107q.198-.0167.395-.0339A40,40,0,0,0,234,108.1011c.2191-.025.3232-.03.4365-.0427a17.628,17.628,0,0,0,5.0623-.1871c.2205-.0451.3794-.0738.5022-.097,1.6559.4792,3.9962-4.2014,5.719-1.0017.1217-.0041.23-.0069.4449-.0153q.35-.0135.7-.0239t.7006-.0176c1.2948-2.9338,2.104-2.4637,2.7651-1.1713.11.2154.2153.4538.3177.7032.37-.3345.37,2.0058.44,1.1606.0541.1263.1131.2475.165.369.3057.7519.6178,1.3707.9795,1.5315a109.6037,109.6037,0,0,0-11.9912-21.8743c-1.0819-.6775-1.5887-4.1507-3.7047-1.6837a5.16,5.16,0,0,0-.6238-.1693,5.6106,5.6106,0,0,0-5.5359,1.8865q-.3666.0114-.7332.0223-.35.01-.7.02t-.7.0194c-1.4848-1.34-2.8124-2.01-4.0707-1.9908a4.6837,4.6837,0,0,0-.5344.0306c-3.0452-.7193-5.3855,3.9613-8.5876,2.3056-.0459.0153-.1051.0363-.1888.0663a7.03,7.03,0,0,0-3.8881-.5591.8007.8007,0,0,0-.4982-.1323c-1.0183-.0383-3.3162-.052-5.4568.0429-.2378.0106-.4738.0224-.7058.0359-.9769-.0553-1.9375-.0886-2.87-.092-.2331-.0009-.46-.0034-.6788-.011-.5142-.0147-1.22-.8359-2.0386-1.62-.1637-.1567-.3318-.312-.5038-.4589-2.4483-3.1362-2.9875-1.9195-3.2021-.0517-.0269.2335-.0451.4722-.0507.7056-.0186.2171.08.4574-.8926,1.2214a1.25,1.25,0,0,0-.3291-.1388,2.8322,2.8322,0,0,0-1.8026.3515,2.7607,2.7607,0,0,1-.3772.0547,9.4431,9.4431,0,0,0-.979-.032c-.1606-.0193-.3508-.0456-.5518-.0716-2.2079.0041-4.5482-4.6765-7.7007-.4485q-.3777-.0231-.7556-.047-.8178-.0514-1.6355-.1054c-.1817-.012-.3615-.0249-.6856-.5524q-.078-.2475-.1536-.4722c-1.1077-3.2978-1.8172-2.9827-2.4227-1.634-.0826.184-.1631.3871-.2425.6029-1.2484-1.09-1.4534-1.03-1.208-.4331.0613.1491.1508.3318.2593.5387.6356,4.8954-6.3853-4.4658-4.0071,1.6978a1.936,1.936,0,0,0-.4338-.0748.5852.5852,0,0,0-.5794.2651.5161.5161,0,0,1-.25-.298.4079.4079,0,0,1,.1467-.3607.6734.6734,0,0,0-.6888-.098,4.0617,4.0617,0,0,0-.8893.4424c-.16.0966-.1825.0894-.2388.0928.5554-1.4518-1.7849-1.4518-4.4319-.992-.217-.03-.4444-.054-.6768-.0767q-.6974-.0681-1.3946-.1383-.3756-.0377-.7509-.076a59.951,59.951,0,0,1-6.7566-.7329,3.6975,3.6975,0,0,1-.6632-.1647c-1.1527-3.9518-3.493.7288-5.3614-.5939a5.61,5.61,0,0,1-.7289-.0621q-4.1262-.5282-8.25-1.122-.375-.054-.75-.1086c-2.445-2.0652-4.7853-2.0652-6.0186-.93-.2351-.0226-.4767-.0553-.7263-.0948q-4.4954-.7126-8.9865-1.503-.3792-.0666-.7582-.134c-2.3374-1.7435-4.6777-1.7435-7.0018-2.0972.0549-.1957.097-.3654.125-.51-.7949-4.8873-4.945,2.9268-6.5452-.6792-.11-.1618-.226-.33-.3485-.5-1.3467-1.87-3.4615-3.96-6.5881-.23q-.3741-.0812-.7483-.1631-4.1153-.9-8.2259-1.8655c-.2491-.0584-.4977-.1173-.7252-.1788-.363-4.88-2.7033-.2-5.4589-2.3312-.1268-.1388-.2823-.323-.4375-.5005-2.33-2.6628-4.59-3.7846-8.4033-.7631-.245-.05-.4908-.1086-.7412-.1751-.1416-.0377-.283-.08-.4245-.1174A110.635,110.635,0,0,0,61.5772,86.53Z"/><path class="cls-4" d="M253.8891,176.17c-.1914.04-.4267.07-.68.0957q-1.1086.1142-2.2175.2235c-.2464.0243-.4925.0484-.7059.0693-6.2884-.4368-15.65-2.7771-23.68,1.7572q-.3687.0186-.7375.037t-.7375.0361q-1.7552.0844-3.5113.1573c-.2341.01-.4672.0194-.6536.0453-2.712,6.8915-7.3926-2.47-10.6769.2531a2.9484,2.9484,0,0,1-.6152.0584q-.7028.0129-1.4057.0239-.3666.0058-.7333.011a33,33,0,0,0-7.3126-.3454,14.59,14.59,0,0,1-1.5355.38c-.2338.0123-.48.0136-.7295.0126q-.748-.0032-1.496-.0087-.3741-.0026-.7481-.0059c-5.5428-2.8488-10.2234,1.8318-15.7087-.3735q-.3741-.0146-.7481-.03c-.2493-.01-.4974-.02-.7092-.029-4.7589,4.6043-11.78-9.4375-13.842,1.4837q-.351.0169-.7031.0181a12.537,12.537,0,0,1-8.321-2.8214.6468.6468,0,0,0-.4067-.1724q-5.2055-.45-10.4082-1.0047-.3786-.04-.7573-.0813c-7.7654-4.5192-12.446-2.1789-19.6748-2.4993q-.378-.0551-.7561-.111-4.1586-.6134-8.314-1.2934l-.6856-.1124c-1.7378-.5031-4.0781-5.1837-6.2563-1.07l-.6782-.1208q-.381-.0679-.7618-.1366c-.2538-.0456-.5035-.0907-.7129-.1286-.35-3.7277-5.03-3.7277-6.9-1.2977q-.3805-.0741-.7609-.1488-4.946-.9706-9.8857-2.0358c-.2534-.0546-.4958-.0833-.7465-.1141-.7786-.1313-3.1189-.1313-3.0712-.7026-.2383-.07-.4874-.13-.7406-.1864q-.7593-.1706-1.5187-.3434c-.127-.0289-.254-.0579-.7618-.1741q-.19-.0437-.3808-.0871-1.9041-.4375-3.8073-.8892c-.2521-.06-.4968-.118-.7115-.1691-1.4883.08-3.8286-4.6-6.4712-1.5862q-.1888-.0474-.3778-.0951-.3777-.0953-.7555-.1911c-.1258-.032-.228-.0644-.33-.098-2.9152-2.63-5.2555-2.63-9.1118-2.3966-.1214-.0241-.2464-.0567-.3722-.091q-9.3227-2.5471-18.613-5.4372a109.3244,109.3244,0,0,0,3.5984,24.3621c.0153.0213.031.0339.0461.0561a3.1283,3.1283,0,0,0,.4439.3245c2.683,1.6061,7.6755-2.1737,10.1721,1.3943l.3785.1083q6.4192,1.8339,12.8532,3.5049l.3785.0981c1.9915,1.19,1.9915,5.8706,7.215,1.8161l.3591.0877q8.5518,2.0843,17.125,3.8808c.127.0267.25.0581.3725.0914,2.0925-.0043,3.9857,2.8844,6.06,2.61a2.17,2.17,0,0,0,.5705-.1578c3.0536-2.4573,5.3939,4.5636,7.9976.43a3.8411,3.8411,0,0,1,.6358.0607q1.1358.2029,2.272.4007.3788.0658.7575.1313c.7519,3.5409,5.4325-1.14,6.82,1.131q.379.06.7581.12,3.79.5976,7.5834,1.1387c.2528.036.5054.072.7475.1123a4.7746,4.7746,0,0,0,2.1383.73c.2344.0383.4779.0716.7268.1007,3.0406,2.5486,3.0406,2.5486,6.4485.1873.1.0017.1177.0033.3545.0053.904.008,1.8371.0211,2.7818.0467.2361.0063.4114.01.5591.0137a24.0105,24.0105,0,0,0,2.8851-.2451q.2895-.0381.58-.0777c3.4737.2781,3.4737-2.0622,6.6187-1.2234a4.1091,4.1091,0,0,0,.6956-.0694c5.5206-.7693.84,8.5919,7.3187,6.6238a6.0032,6.0032,0,0,1,.6591.1891c1.6384.6088,3.3936.6088,4.5638-.5614,0,0,0-.1463-.0134-.3941.0134-1.9462,2.3537-4.2865,4.694-4.2865,0,0,0,2.34.0941,1.79.1868.15.3744.298.5635.44,1.1342.8548,2.3216,1.5043,3.7156,1.0614a2.8693,2.8693,0,0,0,.6708.0868q4.7435.2417,9.4875.3952.3649.0118.73.0231a27.08,27.08,0,0,0,11.11.2233l.5675.0043c3.4856-6.3645,5.8259,2.9966,8.0618.0011q.1945.1217.3835.2368c4.4139,2.6854,6.7588,2.6734,11.5021-.2431q.1877-.1155.38-.2368c4.2205.8983,6.5608.8983,8.3617-.3358q.3357-.0163.6715-.0329,1.0576-.0523,2.1158-.1091.3527-.0189.7055-.0384a4.7747,4.7747,0,0,1,1.0807-.388c.2114-.0526.2338-.0731.308-.0838,2.6788,6.5669,5.0191-2.7942,6.3787-.0163q.3533-.0249.7066-.05c2.6144-.3872,4.9547-.3872,6.3215.1684a2.5018,2.5018,0,0,1,.5309-.1678c1.5264-.36,3.2736-.7085,4.8911.2268a108.8589,108.8589,0,0,0,9.2849-25.9284C256.2528,173.808,254.748,173.9267,253.8891,176.17Z"/><path class="cls-5" d="M147.8615,58.948c-.8263-1.2924-2.1735-2.3366-5.3165.5765-.2345-.0374-.4821-.0824-.7341-.13q-1.5125-.2835-3.0234-.5829a3.6821,3.6821,0,0,0-.6168-.0517,7.0833,7.0833,0,0,1-6.1754-1.3721c-.16-.0416-.3161-.078-.4638-.112l-3.9938-.921q-.372-.0887-.7438-.1786-1.1154-.2691-2.23-.5472-.3715-.0928-.7431-.1864c-1.5188-1.0163-3.8591-1.0163-6.1566-1.6847a3.6624,3.6624,0,0,0-.56.1991c-1.1567.4965-2.2633,1.24-2.9234-1.115q-.37-.1063-.74-.2137-3.7271-1.0814-7.4417-2.2686A109.9533,109.9533,0,0,0,80.4767,66.2486c2.6677,2.1735,4.548-4.3593,5.5819-1.6284q.3743.0943.7488.1881,2.9956.75,5.9937,1.465.375.0893.75.1781c.6262,4.085,4.7792,4.34,7.6875,2.3207a5.9637,5.9637,0,0,0,.5575-.4351c1.3381,1.8538,4.3054-.3157,6.15.0916a1.6227,1.6227,0,0,1,.57.24c1.4891,1.5285,3.1086,3.1593,4.9988,3.2756a3.0193,3.0193,0,0,0,.5661-.0159c1.2,1.2206,5.881-3.46,6.4261.1546a5.2353,5.2353,0,0,0,.6856.1576q1.9813.3608,3.9634.7061.6606.1153,1.3214.2285c2.8457,2.3142,5.186,4.6545,9.0335,1.47q.37.0568.7393.1131c4.7743.7306,7.1146,5.4112,10.8449,1.5377q.3617.0476.7233.0944t.7233.0933c.2411.031.4822.0617.6926.0886,1.1513,3.5973,3.4916-1.0833,6.5431.7888q.3619.0414.7238.0821,1.1579.13,2.3162.2558c.1931.021.3832.0409.5458.0513q.17-.1414.3385-.2708c.1121-.0864.2237-.1688.328-.2445a12.6258,12.6258,0,0,0,6.3883.0923,3.59,3.59,0,0,0,.26.2574q.16.1363.32.2851.3758-.0054.7261-.0066,1.7512-.0064,2.8585.0846a2.2029,2.2029,0,0,0,.1928.4775c3.0174,3.9175,3.1339,1.6645,6.3987-.4922.12.09.246.1853.3794.2844a11.9393,11.9393,0,0,0,2.0566,1.267,3.0108,3.0108,0,0,0,.6025.0831q.38.0253.76.05c.252.0164.3817.0251.5309.0349,1.6465.5174,3.9868,5.198,6.3271,2.8577,0,0,0-2.34.7325-2.4466.2287.0044.4715.0144.7235.0267q1.5118.0737,3.0236.1386c.2533.0109.5038.0246.75.0459a19.7053,19.7053,0,0,1,4.5836.1764c.2413-.01.4907-.0059.7439.002s.5064.0156.76.023a.7676.7676,0,0,1,.4551.1328c-.07-.4391,2.27,1.9012,2.6278,1.7429a.9171.9171,0,0,1,.317.1626c2.3267,2.2433,4.2865-4.33,5.9687-2.2023q.333.0169.6793.049a18.8043,18.8043,0,0,1,2.1557.33l.7632.0036q3.0524.0126,6.1047-.011a3.0486,3.0486,0,0,1,.6676.0474c1.2814-.4208,2.9181,2.1068,4.6437,2.41a1.8043,1.8043,0,0,0,.5781.0114c.0059-.0031.0077-.0083.0133-.0116a2.0272,2.0272,0,0,1-1.1863-.63s2.34,0,1.4914.198a.5817.5817,0,0,1-.3051.4322c1.9472.2583,3.9044-2.9224,5.9226-2.6855l.6865-.0217q1.3728-.0444,2.7457-.0961.3829-.0144.7656-.0294a9.499,9.499,0,0,0,1.2459.8463A110.6672,110.6672,0,0,0,217.849,63.98c-2.3089,2.1046-4.4273,1.9658-6.1533-.1044q-.3655.0214-.7309.0419c-.2073-.0129-.4171-.0246-.6284-.0344.897-.095-1.4433-.095-1.9111-.0417-.21.0017-.4175.0059-.6221.0124a12.018,12.018,0,0,0-2.6794.3312c-.2485.0087-.4968.0173-.7282.0376q-.1052.2743-.21.5125c-2.3136-.947-2.3136-.947-5.3065-.9467a.5092.5092,0,0,0-.4148.0727,1.2118,1.2118,0,0,0-.38.4857q-.3.0032-.6008.0057-.901.0077-1.8015.01-.3276.0006-.6549.0007a11.59,11.59,0,0,0-5.3888-.321,1.3616,1.3616,0,0,0-.4792-.1261,8.7672,8.7672,0,0,0-2.731.3274c-.0337-.0044.04-.0083-.2044-.0159q-2.2-.0677-4.3992-.1693-.3666-.0169-.7331-.0349c-2.6224-.2351-4.9627-.2351-7.37-.4539-.2143-.0163-.4447-.0337-.6886-.0526q-5.8577-.4508-11.7041-1.1416c-.249-.0294-.4959-.0589-.7053-.084-3.2172-.8433-3.2172-.8433-5.0843.0307-.0883-.1024-.1761-.2041-.2635-.3038-.8743-.9967-1.7079-1.7908-2.54-1.1687-.2057.016-.4405.0474-.6736.0858-2.0978.3451-4.06,1.247-4.1387-1.6437A.4282.4282,0,0,0,147.8615,58.948Z"/><path class="cls-6" d="M240.1415,209.46c-.2428-.0414-.4777-.0846-.6962-.1277a7.6752,7.6752,0,0,0-6.4754-.999q-.3077.0857-.6136.1865c-7.081.367-11.7616,7.3878-18.7825,5.0476-2.34-2.34,0-2.34,2.34-2.34-4.6806-2.34-11.7015,2.34-15.4575-1.9072a3.6884,3.6884,0,0,0-.6069-.0567c-2.3257-.3294-2.6164-.3705-3.1986.7525-.0831.16-.1723.3447-.2741.5551-1.5255.6564-6.2061.6564-7.4834-.4678a2.3594,2.3594,0,0,0-.5235-.3c-2.0095-.8779-5.4591-.6876-6.6544.4537q-.3473-.0122-.6948-.0251-2.4319-.09-4.8634-.202a4.7063,4.7063,0,0,1-.6086-.0687c-1.76-3.414-6.4407-1.0737-8.4187-.5117a3.1463,3.1463,0,0,1-.6982.04q-11.5941-.7523-23.1773-2.02-.3788-.0416-.7579-.0836c-3.05-2.5436-8.1533-1.5545-11.8962-1.547a1.8321,1.8321,0,0,0-.3878.0313c-1.8841.3945-3.4655-1.0337-4.7276-1.6905a4.33,4.33,0,0,1-.4431-.2475c-2.74,2.6146-5.08.2743-6.2991.266q-.29-.0341-.5846-.07a28.5745,28.5745,0,0,1-3.0362-.5008l-.7295-.12-.7243-.12c-.7272-6.2021-5.4078-1.5215-7.6-1.3221q-.3782-.0686-.7563-.1377-4.9162-.8986-9.827-1.89l-.6214-.1254c-5.3254-2.7267-10.006-7.4073-16.7435-3.6837-.2431-.05-.4935-.1087-.7448-.1684q-.3229-.0767-.6458-.1537c-.2154-.0514-.43-.1033-.6425-.1584-2.3029-.7093-4.2411-3.7508-6.4994-3.4212a2.5133,2.5133,0,0,0-.6244.1778c-2.8281,2.3406-2.8281-4.68-5.24-1.8q-.3079-.1669-.6179-.3214c-4.7392-2.3627-9.8807-2.6046-15.8163-2.8007A109.28,109.28,0,0,0,56.3244,206.68c.3461.0229.7.045,1.0646.07q.37.1013.7392.2018,2.76.7508,5.53,1.4671c.2308.06.4494.1208.6551.1864,1.6917,2.4333,3.83,2.6071,7.0242,2.0808.2455-.04.4975-.0851.7352-.1324,3.4236,5.3528,3.4236,3.0125,6.912,1.5581.2235.0429.4705.097.72.152a8.5929,8.5929,0,0,1,1.5615-.8238q.2449-.0962.48-.1674c2.1393,1.5768,2.8078,4.2819,4.7489,4.3722.1766.0083.3151.0181.4554.0139a9.3692,9.3692,0,0,1,.7373-3.4752,2.0844,2.0844,0,0,1,.3064-.3957c1.5442-.5619,1.5442,6.459,6.1086,1.9173a1.0176,1.0176,0,0,1,.4247.2177c.3467.314.37.9275-.1841,2.1358a3.3877,3.3877,0,0,1,.2021.5331,3.9147,3.9147,0,0,1,.1221.6045,1.3832,1.3832,0,0,0,.1588.4734c.6262,1.0379,2.5718-1.09,5.0885.9286a4.7364,4.7364,0,0,0,.4322.5248,3.51,3.51,0,0,0,2.7862,1.231,1.7174,1.7174,0,0,0-.0266.2864c-.0027.1421.0037.3544.0286.7066a6.341,6.341,0,0,0-.6152-.3965c-1.0242,1.5815-2.7268-1.0977-3.8761.219a1.7452,1.7452,0,0,0-.2043.292c.46,1.466-4.2208-.8743-4.9657.7515a3.3929,3.3929,0,0,1-.6649-.1506c-.3877-1.59-1.02-1.7047-1.8544-1.448a.59.59,0,0,1-.2691,0c-1.1473-.0273-3.4876-.0273-3.7693-.92-.16-.181-.3241-.3637-.4921-.5419-1.1764-1.2474-2.5417-2.2713-3.9068-.906,0,0,0,2.34-.5915,1.68.0247-.1676.04-.32.0471-.4584.16-3.1841-4.2038,1.022-5.7588-1.2006-.1388-.1347-.2943-.2891-.4537-.4524-1.1474-1.1761-2.5-2.8155-3.8941-2.5256a1.6165,1.6165,0,0,0-.4371.1527,8.228,8.228,0,0,0-1.5505-3.23c-.14-.121-.2725-.1658-.7553-.0321a1.7659,1.7659,0,0,0-.3331.3882c-.8663,1.2914-1.6017,4.3578-3.3176,2.597.0029-.15-.0019-.2937-.0124-.4315-.2423-2.7515-2.7947-3.1042-5.0613-1.7449A110.5776,110.5776,0,0,0,92.235,243.4514l.05.0134c1.2894.3505,1.7192.4675,2.3931.6371.1686.0424.3522.0881.5685.1417,1.3127-.2528,3.653,4.4278,5.5265,1.63.1657.1507.3321.2921.4988.4162a3.1577,3.1577,0,0,0,.5011.3117,1.5816,1.5816,0,0,0,.5574.1637,9.9111,9.9111,0,0,1,6.3273.6346q.373.0784.7463.156a5.9064,5.9064,0,0,1,.6961.1763,13.8759,13.8759,0,0,0,5.4127,1.0744,1.7942,1.7942,0,0,0,.414.3634.5257.5257,0,0,0,.7863-.1917q.366.0664.7318.1318,2.8458.5089,5.6958.96c.2375.0376.4725.0751.6948.115,3.1479,3.1669,5.4882,3.1669,7.1493,1.017.2378.031.4605.06.6246.0811,2.3949,2.0688,7.0755-2.6118,7.9465.9048q.3574.0358.7149.07.4765.0463.9532.0911c.159.0149.3111.0177.4639.0174,1.6775-1.3553,4.0178-1.3553,6.0069.828a3.3192,3.3192,0,0,0,.3638.0389c1.024.0459,2.053.0456,2.9155.017.1726-.0057.3384-.0126.4962-.02.7179.0694,2.5538,1.6275,4.522,2.0782a3.4543,3.4543,0,0,0,.7153.0936c.6995.29,3.04-2.05,3.52-2.044q.3484-.01.6963-.0246c1.0873-.045,2.17-.1234,3.244-.27.2147-.0291.4108-.0569.5257-.0676,1.5558,2.0219,3.2612-1.422,4.8386-2.3911a1.6516,1.6516,0,0,1,.5207-.2205c1.3958.6269,3.7361-4.0537,6.0764-1.7134a7.41,7.41,0,0,0,.8913,3.5663q.3169.1384.6486.2775t.68.2751c.2011.063.4062.133.6079.209,1.4778.4691,2.864,1.1781,4.28-.9427a1.5723,1.5723,0,0,1,.2145-.3831c1.9861-2.539,4.4815.2014,6.2643,1.41a110.3117,110.3117,0,0,0,53.3166-43.4888A9.0047,9.0047,0,0,1,240.1415,209.46Z"/><path class="cls-7" d="M178.7133,256.2327a3.0853,3.0853,0,0,1-.5435.0427,30.8648,30.8648,0,0,0-7.597-.4635,5.0943,5.0943,0,0,0-1.7269.4675c-.1594.1061-.335.2191-.5419.3345-1.1624-.1724-2.2712-.3125-3.351-.4282a3.204,3.204,0,0,1-.5462-.104c-2.3194-.3894-4.66-2.73-7.5085-.4308-.1734.0211-.3772.0257-.5755.0307-1.1059-.0329-2.1256-.0766-2.9949-.1637-.126-.0094-.2561-.0144-.3872-.0193-.6558-.0241-1.33-.05-2.0268-.078-.1293.0213-.2627.0343-.3987.0473-.926.0841-1.5048.1367-2.0162.1356-.17,0-.3334-.0067-.4992-.02-2.2944-4.5719-6.975.1087-8.6787-1.079-.1787-.015-.3668-.0336-.5568-.053q-.3561-.0362-.7123-.0733a8.1126,8.1126,0,0,0-5.7026-.6406c-.2331-.0366-.4675-.07-.7046-.1q-2.8458-.3608-5.6882-.7785a1.137,1.137,0,0,1-.4975-.2023c-.8163.6948-.8163-1.6455-1.292-1.6487a1.9366,1.9366,0,0,0-.4591.1027c-1.1286.3794-2.6521,1.596-4.3972.6932q-.369-.0628-.7378-.1267-1.1064-.1915-2.2125-.3918c-.2457-.0446-.4882-.0881-.7013-.1117-2.718-.1626-5.0583-.1626-6.6635-1.3187q-.3756-.0778-.7512-.1568c-2.3242-1.0273-4.6645-1.0273-6.0751-1.3237a3.2945,3.2945,0,0,0-.6415-.1124c-.2281.0354-.45.063-.6716.0916a109.3178,109.3178,0,0,0,85.4241,5.974C183.2566,252.956,181.2184,256.0447,178.7133,256.2327Z"/><path class="cls-8" d="M113.0244,50.0692q.3728.11.7456.2183a4.9192,4.9192,0,0,0,2.9508,1.61c.2053.0434.4058.0806.5985.1124,2.6425,2.4169,7.3231-2.2637,8.4466,1.5074l.3781.0931c.2485.0611.4925.1207.7212.1766.9832.2558,1.9475.4094,2.8764.5608.2323.0379.4618.0756.6772.1144a1.5067,1.5067,0,0,1,.8682.4448,6.6174,6.6174,0,0,1,.4972.4608c-.1208,3.74,4.56,3.74,7.1246,1.0592.2167.0616.4529.1148.7023.164q2.2442.4418,4.4913.848c.25.0451.4987.0886.7441.12,2.7991-.6929,3.1489-.78,3.5636.18.0591.1371.12.2955.1888.4767a4.2061,4.2061,0,0,1,4.8934-.3817c.2113.1086.4144.2191.5846.295,3.33.9786,3.33.9786,5.8729,1.7248q.375.0465.75.092,1.1253.1367,2.2512.2644.3754.0424.7506.0841c3.0659,1.1536,5.4062,1.1536,6.7712.6743.24.015.4894.0361.74.0571q1.503.1264,3.0068.2368c.2505.0183.5007.0356.75.0486,1.1593.1367,3.5.1367,4.5146.2888q.3762.0206.7523.04,2.8214.147,5.6442.2378.3529.0114.7058.0217a7.4788,7.4788,0,0,1,2.5164-.3251,4.0292,4.0292,0,0,0,.4987-.0371,20.0968,20.0968,0,0,1,6.162.4857q.3531-.0011.7062-.0029.6355-.0034,1.271-.01c.2118-.0021.4228-.0049.6279-.0129,3.1531-.4951,3.4685-.5447,5.81-.26.13.0159.2664.0327.41.0506A2.7247,2.7247,0,0,0,205.6,61.32c.1728-.117.3471-.2481.5169-.3875,1.9831-4.6472,3.7437-1.1989,5.3.2948a3.5965,3.5965,0,0,0,.4475.3744c.7783-.07,1.6852-.1121,2.557-.1844A109.3761,109.3761,0,0,0,109.3246,48.9359C110.5577,49.3156,111.7894,49.706,113.0244,50.0692Z"/><path class="cls-9" d="M150.588,43.5746a107.0131,107.0131,0,1,1-75.67,31.3434,106.3129,106.3129,0,0,1,75.67-31.3434Zm0-5.4383A112.4515,112.4515,0,1,0,263.0395,150.5878,112.4515,112.4515,0,0,0,150.588,38.1363Z"/></svg>