<svg id="Capa_1" data-name="Capa 1" xmlns="http://www.w3.org/2000/svg" viewBox="0 0 58.09 60.85"><defs><style>.cls-1{fill:#fff;}.cls-2,.cls-3{fill:#1d1d1b;}.cls-3{stroke:#1d1d1b;stroke-miterlimit:10;}</style></defs><title>Spaceship</title><path class="cls-1" d="M242.77,211.94a18.6,18.6,0,0,1,36.58.55l9.19,38.06H232.48Z" transform="translate(-231.9 -197.01)"/><path class="cls-2" d="M233,248.56l55.09.31c1.13,1.46,2.36,3.52,1.74,5.32-.93,2.7-5.69,3.89-29.41,3.64-21.52-.22-27.16-1.32-28.31-4.55C231.52,251.6,232.28,249.8,233,248.56Z" transform="translate(-231.9 -197.01)"/><path class="cls-2" d="M233.31,249c.71-2.71,1.22-4.63,1.62-6.19,0-.09.35-1.18,1-3.36a10,10,0,0,1,1.31-3.14c.41-.59,1.16-1.67,1.78-1.53.3.07.68.45,1.08,3.14a34,34,0,0,1,.39,4.44c0,1.78,0,4-.11,6.57Z" transform="translate(-231.9 -197.01)"/><path class="cls-2" d="M287.81,248.94c-.71-2.71-1.22-4.63-1.62-6.19,0-.09-.35-1.18-1-3.36a10,10,0,0,0-1.31-3.14c-.41-.59-1.16-1.67-1.78-1.53-.3.07-.68.45-1.08,3.14a34,34,0,0,0-.39,4.44c0,1.78,0,4,.11,6.57Z" transform="translate(-231.9 -197.01)"/><path class="cls-3" d="M244.42,207.05c5.12.36,10.64.57,16.52.54s11.37-.31,16.47-.74l.17.31c-5.16.43-10.73.71-16.65.76s-11.5-.15-16.68-.51Z" transform="translate(-231.9 -197.01)"/></svg>